<svg width="59" height="60" viewBox="0 0 59 60" fill="none" xmlns="http://www.w3.org/2000/svg">
    <path fill-rule="evenodd" clip-rule="evenodd" d="M36.6875 0.923246C36.4813 1.01312 35.6995 1.57612 34.9502 2.17437C33.2232 3.55337 31.8062 4.3905 30.0474 5.07062C28.3891 5.71187 27.2934 5.953 25.2288 6.13075C24.2941 6.21125 23.6224 6.32762 23.522 6.42662C23.2042 6.74 23.1255 7.58062 23.1814 10.0625C23.3133 15.9206 24.4469 20.1174 26.9293 23.9375C29.2725 27.5435 33.1538 30.6835 36.4915 31.6736C37.2734 31.9056 38.5865 31.9352 39.3125 31.7374C41.3041 31.1945 43.873 29.5982 45.9204 27.6316C49.5693 24.1265 51.6415 19.8845 52.5796 14C52.8376 12.3816 52.9617 7.38637 52.7564 6.89025C52.5632 6.42425 52.19 6.27962 50.9375 6.18562C48.1063 5.97287 45.3686 5.13125 43.3125 3.84125C42.5222 3.3455 41.3005 2.43987 40.8125 1.98825C40.6063 1.79737 40.1032 1.44062 39.6949 1.19562C39.0149 0.787621 38.8725 0.750371 38.0074 0.754871C37.4876 0.757621 36.8937 0.833371 36.6875 0.923246ZM15.045 6.5435C14.6365 6.825 14.3252 7.17737 14.0939 7.62025C13.7564 8.2665 13.75 8.319 13.7519 10.483L13.7537 12.6875L14.3439 11.6875C15.0271 10.5297 16.4491 9.03512 17.6101 8.25462C18.6284 7.57012 20.2014 6.844 21.2812 6.55987C21.7454 6.43775 22.125 6.29 22.125 6.2315C22.125 6.17287 20.6686 6.125 18.8886 6.125H15.6522L15.045 6.5435ZM21 7.92787C16.6435 9.40512 13.875 13.1601 13.875 17.5916C13.875 22.4362 16.7374 26.1379 21.5 27.4522C22.9132 27.8422 27.5629 27.6439 27.7062 27.1875C27.7279 27.1187 27.4034 26.6406 26.9853 26.125C26.5671 25.6094 25.9866 24.8219 25.6952 24.375C25.4039 23.9281 25.0728 23.4859 24.9594 23.3922C24.7014 23.1792 24.3516 23.3006 24.3814 23.5929C24.4444 24.2107 24.4034 24.25 23.695 24.25H23.0151L22.9762 23.7936C22.9402 23.369 22.8975 23.3256 22.3636 23.1706C21.1379 22.8147 19.9964 21.2899 20.188 20.2644C20.2952 19.6904 20.4263 19.536 20.8939 19.4334C21.1866 19.369 21.3378 19.4139 21.5728 19.6346C21.739 19.7907 21.875 20.0231 21.875 20.1507C21.875 20.6096 22.2426 21.2492 22.6488 21.4967L23.0625 21.7489L23.1437 21.4682C23.1885 21.3139 23.2306 20.7769 23.2375 20.275C23.2545 19.0304 23.0786 18.7307 22.0175 18.1962C20.971 17.6694 20.4443 17.0894 20.177 16.1697C19.9861 15.5131 19.9867 15.412 20.1864 14.6744C20.3572 14.043 20.5077 13.7844 20.932 13.3934C21.2244 13.1239 21.5834 12.8654 21.7299 12.8189C21.9935 12.7352 21.9954 12.7089 21.9182 10.2109C21.8754 8.823 21.834 7.67962 21.8264 7.66987C21.8187 7.66025 21.4469 7.77637 21 7.92787ZM37.5224 10.8952C36.8687 11.0786 36.75 11.5267 36.75 13.8085V15.75H34.8688C32.8335 15.75 32.466 15.8392 32.081 16.4267C31.8194 16.8261 31.82 17.1807 32.0831 17.6262C32.4086 18.1772 32.7276 18.25 34.8184 18.25H36.75V20.2315C36.75 22.0801 36.7689 22.2409 37.0312 22.6281C37.4038 23.1777 37.8447 23.3182 38.4304 23.0735C39.13 22.7812 39.25 22.35 39.25 20.129V18.25H41.3221H43.3942L43.7596 17.8846C44.4279 17.2164 44.1984 16.2119 43.2994 15.87C43.1257 15.804 42.1436 15.75 41.1169 15.75H39.25V13.6895V11.629L38.9062 11.264C38.5065 10.8396 38.1034 10.7321 37.5224 10.8952ZM21.8041 14.9327C21.6356 15.19 21.6266 15.3139 21.7499 15.6871C21.8861 16.1 22.4259 16.6159 22.5704 16.4712C22.6048 16.4369 22.5666 16.0074 22.4856 15.5169C22.3264 14.5521 22.1516 14.4024 21.8041 14.9327ZM2.65737 16.4967C2.02575 16.6467 1.1775 17.4165 0.930124 18.0644C0.765499 18.4954 0.732999 18.8282 0.792749 19.4709C0.985374 21.5444 2.68075 28.8617 3.67312 31.9034C4.45675 34.305 6.56687 38.4099 8.41325 41.1245C10.442 44.1072 13.0811 47.065 15.625 49.207C16.21 49.6995 18.5047 51.2282 19.4301 51.7419C20.2802 52.2137 22.485 53.1195 23.5 53.4139C25.2475 53.9207 26.2629 54 31.0074 54C36.7774 54 38.2475 54.1855 40.4571 55.1925C40.9863 55.4336 41.4569 55.5874 41.503 55.5342C41.5491 55.481 41.8429 54.6781 42.1558 53.75C42.4686 52.8219 43.3854 50.1219 44.193 47.75C45.0008 45.3781 45.7369 43.1922 45.829 42.8924L45.9964 42.3472L44.842 41.2032C44.087 40.4551 43.3421 39.5407 42.6895 38.5609C40.4259 35.1624 37.9734 33.4521 34.9084 33.135C33.6326 33.003 32.5469 33.1057 30.3435 33.5669C28.8625 33.8767 28.4271 33.9911 25.6782 34.7919C23.6034 35.3964 22.1925 35.517 16.125 35.6089L10.9375 35.6875L10.3787 36.0004C9.56612 36.4554 9.22837 37.0987 9.28187 38.0897C9.31512 38.7067 9.38712 38.9346 9.63062 39.1954C10.2386 39.846 10.4997 39.9104 15.4375 40.6256C16.8812 40.8347 18.3719 41.061 18.75 41.1284C19.1281 41.1957 21.0406 41.5065 23 41.819C25.0154 42.1405 26.6335 42.4575 26.726 42.5491C26.9121 42.7334 26.8179 43.2881 26.5646 43.4982C26.4156 43.6219 24.2846 43.3184 19.0625 42.4295C18.4438 42.3241 17.0094 42.1 15.875 41.9312C10.1069 41.0732 9.57075 40.9385 8.85987 40.1677C8.02812 39.2657 7.80187 38.4082 8.08062 37.2134C8.28937 36.3187 8.8305 35.5479 9.58575 35.0689C10.381 34.5647 10.7854 34.4774 12.7227 34.3916L14.5081 34.3125L13.9267 33.375C11.8321 29.9974 9.653 25.9154 7.68612 21.6851C6.9515 20.1051 6.212 18.5186 6.04275 18.1595C5.40337 16.8032 4.088 16.1571 2.65737 16.4967ZM13.7194 24.5312C13.7464 25.511 13.8294 26.5094 13.9037 26.75C14.1195 27.4476 14.5877 28.0575 15.1585 28.3845C15.673 28.6792 15.7678 28.6882 18.625 28.7127C21.4453 28.737 21.5325 28.7306 20.8125 28.5531C18.2575 27.9235 14.9712 25.2945 13.9884 23.0937C13.904 22.9047 13.7979 22.75 13.7526 22.75C13.7074 22.75 13.6924 23.5515 13.7194 24.5312ZM48.0456 41.1461C47.6714 41.3274 47.642 41.3995 46.3254 45.375C45.6765 47.3344 44.5786 50.5969 43.8859 52.625C43.193 54.6531 42.6259 56.4089 42.6256 56.5267C42.6251 56.6927 43.026 56.8682 44.4062 57.3061C45.3859 57.6169 47.4813 58.2951 49.0625 58.8134C50.6437 59.3315 52.1499 59.7897 52.4095 59.8317C53.1394 59.9496 53.5146 59.5017 54.101 57.8125C54.2441 57.4 54.6216 56.3594 54.9398 55.5C55.844 53.0577 57.0751 49.6371 57.8854 47.3157C58.5333 45.4596 58.6096 45.1447 58.4958 44.7996C58.4241 44.5827 58.2693 44.321 58.1515 44.218C58.0339 44.1151 56.2781 43.4806 54.25 42.8081C52.2219 42.1356 50.5063 41.5449 50.4375 41.4952C50.2327 41.3476 48.9221 40.9994 48.6058 41.0085C48.4445 41.0131 48.1924 41.0751 48.0456 41.1461ZM46.6154 48.4904C46.1738 48.932 46.1476 49.367 46.5355 49.818C46.9131 50.257 47.6922 50.286 48.0262 49.8736C48.3531 49.4699 48.3148 48.8035 47.9431 48.4319C47.5304 48.019 47.0663 48.0395 46.6154 48.4904Z" fill="#C7C7C7"/>
    </svg>