<svg width="517" height="380" viewBox="0 0 517 380" fill="none" xmlns="http://www.w3.org/2000/svg">
<g clip-path="url(#clip0_41_821)">
<mask id="mask0_41_821" style="mask-type:luminance" maskUnits="userSpaceOnUse" x="44" y="45" width="473" height="335">
<path d="M516.504 45.1934H44.2715V379.999H516.504V45.1934Z" fill="white"/>
</mask>
<g mask="url(#mask0_41_821)">
<path opacity="0.1" d="M201.27 379.812C224.267 379.812 242.91 376.815 242.91 373.118C242.91 369.421 224.267 366.424 201.27 366.424C178.272 366.424 159.629 369.421 159.629 373.118C159.629 376.815 178.272 379.812 201.27 379.812Z" fill="#0046EA"/>
<path opacity="0.1" d="M427.62 379.999C456.318 379.999 479.581 377.002 479.581 373.305C479.581 369.608 456.318 366.611 427.62 366.611C398.923 366.611 375.66 369.608 375.66 373.305C375.66 377.002 398.923 379.999 427.62 379.999Z" fill="#0046EA"/>
<path opacity="0.1" d="M50.1857 189.854H93.557V249.023H53.3609C53.2541 249.63 53.1515 250.242 53.0404 250.854H93.557V298.572C93.4843 298.55 93.4202 298.525 93.3518 298.499C92.2065 298.046 91.0698 297.566 89.9331 297.053L89.2066 296.724C88.067 296.185 86.9274 295.615 85.7878 295.013C85.3904 294.804 84.993 294.585 84.5998 294.363C78.2733 290.816 72.526 286.321 67.5573 281.035C67.412 280.894 67.2753 280.744 67.13 280.607C66.4377 279.854 65.7582 279.093 65.1001 278.314L64.3736 277.459C63.5958 276.505 62.8437 275.525 62.1129 274.533C62.0061 274.388 61.9035 274.242 61.7924 274.105C58.8204 269.981 56.3528 265.515 54.4421 260.803C54.3823 260.662 54.331 260.508 54.2754 260.375C53.6885 258.864 53.1686 257.338 52.7156 255.798C52.519 255.153 52.331 254.515 52.1686 253.844C52.1088 253.647 52.0575 253.454 52.0105 253.262C49.5832 243.779 49.2969 233.928 49.2969 224.146C49.2969 223.004 49.2969 221.858 49.2969 220.724C49.2969 216.768 49.3439 212.785 49.4122 208.807C49.4122 207.777 49.455 206.75 49.4763 205.715C49.5362 203.089 49.6216 200.462 49.7328 197.836C49.7584 197.105 49.7926 196.377 49.831 195.65C49.831 195.231 49.8524 194.812 49.8951 194.393C49.9977 192.87 50.0832 191.36 50.1857 189.854Z" fill="#0046EA"/>
<path opacity="0.1" d="M93.5569 123.975H69.7666C73.6338 117.916 77.8593 112.094 82.4203 106.54C85.9544 102.194 89.6851 97.9595 93.5569 93.8789V123.975Z" fill="#0046EA"/>
<path opacity="0.1" d="M93.5568 125.805V188.024H50.3223C50.3223 187.844 50.3522 187.66 50.365 187.48C50.4035 186.989 50.442 186.497 50.4847 186.009C50.5317 185.436 50.583 184.858 50.6385 184.298C50.6941 183.738 50.7539 183.053 50.818 182.433C50.8821 181.813 50.9419 181.184 51.0146 180.564C51.0872 179.944 51.1513 179.324 51.2283 178.708C51.3052 178.092 51.3736 177.467 51.4548 176.851C51.5189 176.338 51.5872 175.829 51.6556 175.316C51.7539 174.593 51.8565 173.866 51.9676 173.147C51.9676 173.04 51.9975 172.929 52.0146 172.826C52.7946 167.566 53.8573 162.351 55.1983 157.205C56.602 151.807 58.3944 146.518 60.5615 141.379C62.8647 136.003 65.5615 130.805 68.6297 125.827L93.5568 125.805Z" fill="#0046EA"/>
<path opacity="0.1" d="M103.912 189.85V249.023H196.548V189.85H103.912ZM103.912 250.849V301.664C104.442 301.776 104.968 301.883 105.489 301.972C106.198 302.109 106.904 302.233 107.626 302.34C107.762 302.362 107.904 302.383 108.053 302.396C108.335 302.443 108.626 302.481 108.908 302.52C109.621 302.618 110.331 302.7 111.044 302.764C111.382 302.798 111.724 302.828 112.066 302.854L112.891 302.918C113.339 302.952 113.784 302.978 114.224 302.99C114.497 302.99 114.771 303.016 115.053 303.025C115.267 303.025 115.48 303.025 115.703 303.025C115.925 303.025 116.241 303.025 116.51 303.025C116.878 303.025 117.245 303.025 117.609 303.025H118.1C118.467 303.025 118.835 303.025 119.198 302.99H119.224C119.476 302.99 119.732 302.99 119.989 302.956C120.06 302.961 120.131 302.961 120.202 302.956C120.416 302.956 120.63 302.956 120.835 302.926H120.985L122.416 302.815C122.886 302.772 123.361 302.717 123.839 302.665L124.814 302.55C128.777 301.994 132.697 301.159 136.544 300.052C145.185 297.64 153.638 294.265 162.275 291.792C173.441 288.606 185.779 287.04 196.569 290.937V250.849H103.912ZM196.548 123.975V45.1984C186.406 45.0884 176.291 46.2757 166.45 48.7315C142.993 54.6299 121.946 67.4235 103.912 83.763V123.97H108.562V125.797H103.912V188.024H196.548V125.801H127.651V123.975H196.548ZM315.533 97.365C309.73 97.1597 303.961 95.3204 298.743 92.4803C288.764 87.048 280.794 78.6601 271.888 71.5811C253.384 56.837 230.436 47.9401 206.894 45.733V123.975H339.135L339.465 123.628L315.533 97.365ZM327.58 95.2263L340.353 109.256V91.5478C336.076 92.0782 332.328 93.34 327.597 95.2092L327.58 95.2263ZM340.353 314.283V250.849H313.136C313.063 250.58 312.991 250.306 312.905 250.033C312.986 250.306 313.055 250.58 313.132 250.849H206.911V296.724C207.919 297.473 208.915 298.26 209.902 299.06C210.966 299.915 212.017 300.818 213.073 301.703L214.137 302.584C214.646 303.012 215.158 303.44 215.676 303.842C216.701 304.674 217.737 305.496 218.782 306.305C219.299 306.733 219.829 307.118 220.355 307.52C228.7 313.906 237.503 319.669 246.692 324.762C248.752 325.903 250.83 327.016 252.927 328.103C254.325 328.817 255.731 329.527 257.141 330.216C259.26 331.251 261.397 332.249 263.551 333.21C283.408 342.132 304.406 348.254 325.943 351.402C330.727 352.109 335.529 352.665 340.349 353.07V314.278H340.776L340.353 314.283ZM206.911 125.801V188.024H340.37V125.801H206.911ZM206.911 189.85V249.023H340.37V189.85H206.911ZM350.729 91.4708V111.224L367.033 93.3186C361.631 92.446 356.196 91.823 350.729 91.4494V91.4708ZM350.729 189.871V249.023H480.535V189.85L350.729 189.871ZM480.061 318.979L480.518 250.849H350.729V353.75C359.09 354.101 367.464 354.001 375.814 353.45H375.96C379.948 353.2 383.918 352.835 387.87 352.355H387.96C409.041 349.9 429.654 344.394 449.155 336.012M505.565 199.594C505.078 198.443 504.569 197.301 504.052 196.172C503.086 194.033 502.065 191.955 501.014 189.876H490.886V249.023H516.492C516.479 232.273 512.244 215.164 505.578 199.573L505.565 199.594ZM490.886 250.871V309.471C498.099 302.55 504.193 294.633 508.582 285.582C513.86 274.683 516.274 262.882 516.471 250.862L490.886 250.871ZM490.886 172.629V188.028H500.065C497.288 182.727 494.228 177.58 490.898 172.608L490.886 172.629ZM402.853 103.08C402.177 102.823 401.502 102.562 400.823 102.31C393.656 99.6608 386.333 97.458 378.896 95.714L353.947 123.119L353.469 123.628L353.789 123.979H442.583C430.216 115.459 416.884 108.436 402.865 103.058L402.853 103.08ZM445.185 125.822H352.55L350.729 127.491V188.024H366.686H366.712H480.552V158.702C470.254 146.236 458.368 135.175 445.198 125.801L445.185 125.822Z" fill="#0046EA"/>
<path opacity="0.1" d="M93.5568 157.188V188.023H50.3223C50.3223 187.843 50.3522 187.659 50.365 187.479C50.4035 186.988 50.442 186.497 50.4847 186.008C50.5317 185.435 50.583 184.858 50.6385 184.298C50.6941 183.738 50.7539 183.052 50.818 182.432C50.8821 181.812 50.9419 181.183 51.0146 180.563C51.0872 179.943 51.1513 179.323 51.2283 178.707C51.3052 178.091 51.3736 177.466 51.4548 176.85C51.5189 176.337 51.5872 175.828 51.6556 175.315C51.7539 174.592 51.8565 173.865 51.9676 173.146C51.9676 173.039 51.9975 172.929 52.0146 172.826C52.7946 167.566 53.8573 162.35 55.1983 157.204L93.5568 157.188Z" fill="#0046EA"/>
<path opacity="0.1" d="M50.1857 189.854H93.557V249.023H53.3609C53.2541 249.63 53.1515 250.242 53.0404 250.854H93.557V298.572C93.4843 298.55 93.4202 298.525 93.3518 298.499C92.2065 298.046 91.0698 297.566 89.9331 297.053L89.2066 296.724C88.067 296.185 86.9274 295.615 85.7878 295.013C85.3904 294.804 84.993 294.585 84.5998 294.363C78.2733 290.816 72.526 286.321 67.5573 281.035C67.412 280.894 67.2753 280.744 67.13 280.607C66.4377 279.854 65.7582 279.093 65.1001 278.314L64.3736 277.459C63.5958 276.505 62.8437 275.525 62.1129 274.533C62.0061 274.388 61.9035 274.242 61.7924 274.105C58.8204 269.981 56.3528 265.515 54.4421 260.803C54.3823 260.662 54.331 260.508 54.2754 260.375C53.6885 258.864 53.1686 257.338 52.7156 255.798C52.519 255.153 52.331 254.515 52.1686 253.844C52.1088 253.647 52.0575 253.454 52.0105 253.262C49.5832 243.779 49.2969 233.928 49.2969 224.146C49.2969 223.004 49.2969 221.858 49.2969 220.724C49.2969 216.768 49.3439 212.785 49.4122 208.807C49.4122 207.777 49.455 206.75 49.4763 205.715C49.5362 203.089 49.6216 200.462 49.7328 197.836C49.7584 197.105 49.7926 196.377 49.831 195.65C49.831 195.231 49.8524 194.812 49.8951 194.393C49.9977 192.87 50.0832 191.36 50.1857 189.854Z" fill="#0046EA"/>
<path opacity="0.1" d="M136.523 134.711V188.024H103.912V134.711H108.562V116.66H127.647V134.711H136.523Z" fill="#0046EA"/>
<path opacity="0.1" d="M136.523 189.85H103.916V249.019H136.523V189.85Z" fill="#0046EA"/>
<path opacity="0.1" d="M103.912 250.854H136.523V300.043C132.676 301.15 128.756 301.982 124.792 302.536L123.818 302.657C123.339 302.712 122.865 302.76 122.395 302.807C121.925 302.854 121.438 302.888 120.963 302.918H120.814C120.608 302.918 120.386 302.943 120.185 302.948H119.967C119.711 302.948 119.455 302.973 119.198 302.982C118.835 303.003 118.472 303.008 118.1 303.012C117.942 303.012 117.792 303.012 117.634 303.012C117.267 303.012 116.903 303.012 116.536 303.012H115.728C115.51 303.012 115.301 303.012 115.074 303.012L114.25 302.982C113.822 302.982 113.361 302.935 112.916 302.905L112.096 302.845L111.074 302.751C110.356 302.687 109.643 302.605 108.938 302.507L108.083 302.387L107.656 302.327C106.942 302.216 106.237 302.096 105.519 301.96C104.993 301.87 104.472 301.759 103.942 301.652L103.912 250.854Z" fill="#0046EA"/>
<path opacity="0.1" d="M340.37 128.414H313.482V188.019H340.37V128.414Z" fill="#0046EA"/>
<path opacity="0.1" d="M340.374 189.85V249.023H206.91V223.5H277.998V238.556H313.481V189.85H340.374Z" fill="#0046EA"/>
<path opacity="0.1" d="M340.797 314.296H340.369V353.113C335.555 352.705 330.754 352.15 325.968 351.449C304.42 348.291 283.413 342.156 263.55 333.219C257.815 330.635 252.197 327.815 246.695 324.758C237.506 319.662 228.702 313.899 220.354 307.516C218.257 305.908 216.187 304.262 214.145 302.58C212.73 301.412 211.324 300.214 209.901 299.051C208.914 298.251 207.918 297.464 206.91 296.711V250.854H313.126C313.054 250.58 312.981 250.306 312.904 250.037C312.985 250.306 313.062 250.58 313.135 250.854H340.369V314.27C340.515 314.274 340.656 314.287 340.797 314.296Z" fill="#0046EA"/>
<path opacity="0.1" d="M410.498 123.975H392.977V118.525H400.831V102.293C401.512 102.541 402.19 102.796 402.865 103.058V118.525H410.498V123.975Z" fill="#0046EA"/>
<path opacity="0.1" d="M452.711 188.024H366.695C366.695 188.024 366.695 188.024 366.725 188.045L366.686 188.024H350.729V128.419H355.251V172.475H375.913V146.384H392.981V125.805H410.502V146.401H427.57V172.493H452.711V188.024Z" fill="#0046EA"/>
<path opacity="0.1" d="M350.729 189.85V249.023H452.711V189.85H350.729ZM480.394 318.676L480.535 271.839H452.711V250.879H350.729V353.75C359.09 354.101 367.464 354.001 375.814 353.45H375.96C379.948 353.2 383.918 352.835 387.87 352.355H387.96C409.041 349.9 429.654 344.394 449.155 336.012" fill="#0046EA"/>
<path opacity="0.1" d="M492.696 250.854H516.487C516.277 262.869 513.867 274.67 508.594 285.569C504.205 294.624 498.107 302.541 490.902 309.458V271.816H492.696V250.854Z" fill="#0046EA"/>
<path opacity="0.1" d="M516.5 249.022H492.697V199.572H505.577C512.243 215.162 516.478 232.272 516.5 249.022Z" fill="#0046EA"/>
<path opacity="0.1" d="M340.375 144.984H325.969V163.672H340.375V144.984Z" fill="#0046EA"/>
<path opacity="0.1" d="M340.375 183.721H325.969V188.024H340.375V183.721Z" fill="#0046EA"/>
<path opacity="0.1" d="M340.375 189.85H325.969V202.404H340.375V189.85Z" fill="#0046EA"/>
<path opacity="0.1" d="M340.375 222.455H325.969V241.143H340.375V222.455Z" fill="#0046EA"/>
<path opacity="0.1" d="M340.375 261.191H325.969V279.879H340.375V261.191Z" fill="#0046EA"/>
<path opacity="0.1" d="M340.371 314.27C340.516 314.27 340.657 314.27 340.798 314.296H340.371V318.637H325.969V299.928H340.371V314.27Z" fill="#0046EA"/>
<path opacity="0.1" d="M340.371 338.654V353.09C335.556 352.682 330.755 352.128 325.969 351.426V338.654H340.371Z" fill="#0046EA"/>
<path opacity="0.1" d="M268.648 247.65H206.91V249.023H268.648V247.65Z" fill="#0046EA"/>
<path opacity="0.1" d="M268.648 250.85H206.91V256.111H268.648V250.85Z" fill="#0046EA"/>
<path opacity="0.1" d="M268.648 273.357H206.91V281.818H268.648V273.357Z" fill="#0046EA"/>
<path opacity="0.1" d="M268.645 299.064V307.524H220.355C218.258 305.922 216.187 304.277 214.141 302.588C212.727 301.421 211.325 300.223 209.898 299.064H268.645Z" fill="#0046EA"/>
<path opacity="0.1" d="M268.645 324.766V333.219H263.547C257.817 330.632 252.201 327.811 246.697 324.754L268.645 324.766Z" fill="#0046EA"/>
<path opacity="0.1" d="M387.971 195.586H375.818V207.751H387.971V195.586Z" fill="#0046EA"/>
<path opacity="0.1" d="M124.822 138.906H112.668V151.071H124.822V138.906Z" fill="#0046EA"/>
<path opacity="0.1" d="M124.822 167.162H112.668V179.327H124.822V167.162Z" fill="#0046EA"/>
<path opacity="0.1" d="M124.822 195.418H112.668V207.583H124.822V195.418Z" fill="#0046EA"/>
<path opacity="0.1" d="M124.822 223.672H112.668V235.837H124.822V223.672Z" fill="#0046EA"/>
<path opacity="0.1" d="M124.822 251.928H112.668V264.093H124.822V251.928Z" fill="#0046EA"/>
<path opacity="0.1" d="M124.822 280.184H112.668V292.348H124.822V280.184Z" fill="#0046EA"/>
<path opacity="0.1" d="M434.368 195.586H422.215V207.751H434.368V195.586Z" fill="#0046EA"/>
<path opacity="0.1" d="M387.971 225.592H375.818V237.757H387.971V225.592Z" fill="#0046EA"/>
<path opacity="0.1" d="M434.368 225.592H422.215V237.757H434.368V225.592Z" fill="#0046EA"/>
<path opacity="0.1" d="M387.971 255.594H375.818V267.759H387.971V255.594Z" fill="#0046EA"/>
<path opacity="0.1" d="M434.368 255.594H422.215V267.759H434.368V255.594Z" fill="#0046EA"/>
<path opacity="0.1" d="M387.971 285.6H375.818V297.765H387.971V285.6Z" fill="#0046EA"/>
<path opacity="0.1" d="M434.368 285.6H422.215V297.765H434.368V285.6Z" fill="#0046EA"/>
<path opacity="0.1" d="M387.971 315.604H375.818V327.769H387.971V315.604Z" fill="#0046EA"/>
<path opacity="0.1" d="M434.368 315.604H422.215V327.769H434.368V315.604Z" fill="#0046EA"/>
<path opacity="0.1" d="M375.818 353.449V345.605H387.967V352.333L375.818 353.449Z" fill="#0046EA"/>
<path opacity="0.1" d="M51.9639 172.818V179.777H93.5574V172.818H51.9639ZM56.1092 179.341H52.716V173.245H56.1348L56.1092 179.341ZM60.2501 179.341H56.8314V173.245H60.2501V179.341ZM64.3826 179.341H60.9638V173.245H64.3826V179.341ZM68.5235 179.341H65.109V173.245H68.5278L68.5235 179.341ZM72.6602 179.341H69.2415V173.245H72.6602V179.341ZM76.8012 179.341H73.3824V173.245H76.8012V179.341ZM80.9422 179.341H77.5234V173.245H80.9422V179.341ZM85.0789 179.341H81.6601V173.245H85.0789V179.341ZM89.2156 179.341H85.7968V173.245H89.2156V179.341ZM93.3522 179.341H89.9335V173.245H93.3522V179.341Z" fill="#0046EA"/>
<path opacity="0.1" d="M51.9639 193.066V200.025H93.5574V193.066H51.9639ZM56.1092 199.584H52.716V193.506H56.1348L56.1092 199.584ZM60.2501 199.584H56.8314V193.506H60.2501V199.584ZM64.3826 199.584H60.9638V193.506H64.3826V199.584ZM68.5235 199.584H65.109V193.506H68.5278L68.5235 199.584ZM72.6602 199.584H69.2415V193.506H72.6602V199.584ZM76.8012 199.584H73.3824V193.506H76.8012V199.584ZM80.9422 199.584H77.5234V193.506H80.9422V199.584ZM85.0789 199.584H81.6601V193.506H85.0789V199.584ZM89.2156 199.584H85.7968V193.506H89.2156V199.584ZM93.3522 199.584H89.9335V193.506H93.3522V199.584Z" fill="#0046EA"/>
<path opacity="0.1" d="M51.9639 213.324V220.296H93.5574V213.324H51.9639ZM56.1092 219.843H52.716V213.761H56.1348L56.1092 219.843ZM60.2501 219.843H56.8314V213.761H60.2501V219.843ZM64.3826 219.843H60.9638V213.761H64.3826V219.843ZM68.5235 219.843H65.109V213.761H68.5278L68.5235 219.843ZM72.6602 219.843H69.2415V213.761H72.6602V219.843ZM76.8012 219.843H73.3824V213.761H76.8012V219.843ZM80.9422 219.843H77.5234V213.761H80.9422V219.843ZM85.0789 219.843H81.6601V213.761H85.0789V219.843ZM89.2156 219.843H85.7968V213.761H89.2156V219.843ZM93.3522 219.843H89.9335V213.761H93.3522V219.843Z" fill="#0046EA"/>
<path opacity="0.1" d="M51.9637 233.582V240.533H93.5572V233.582H51.9637ZM56.109 240.1H52.7158V234.014H56.1346L56.109 240.1ZM60.2499 240.1H56.8312V234.014H60.2499V240.1ZM64.3824 240.1H60.9636V234.014H64.3824V240.1ZM68.5233 240.1H65.1088V234.014H68.5276L68.5233 240.1ZM72.66 240.1H69.2413V234.014H72.66V240.1ZM76.801 240.1H73.3822V234.014H76.801V240.1ZM80.942 240.1H77.5232V234.014H80.942V240.1ZM85.0787 240.1H81.6599V234.014H85.0787V240.1ZM89.2154 240.1H85.7966V234.014H89.2154V240.1ZM93.352 240.1H89.9333V234.014H93.352V240.1Z" fill="#0046EA"/>
<path opacity="0.1" d="M52.1436 253.834C52.3102 254.489 52.4982 255.143 52.6948 255.789V254.27H56.1136V260.353H54.2845C54.3401 260.494 54.3957 260.648 54.4512 260.781H93.5575V253.834H52.1436ZM60.2631 260.353H56.8443V254.27H60.2631V260.353ZM64.3955 260.353H60.9768V254.27H64.3955V260.353ZM68.5365 260.353H65.1092V254.27H68.5279L68.5365 260.353ZM72.6732 260.353H69.2544V254.27H72.6732V260.353ZM76.8142 260.353H73.3954V254.27H76.8142V260.353ZM80.9551 260.353H77.5364V254.27H80.9551V260.353ZM85.0918 260.353H81.6731V254.27H85.0918V260.353ZM89.2285 260.353H85.8098V254.27H89.2285V260.353ZM93.3652 260.353H89.9465V254.27H93.3652V260.353Z" fill="#0046EA"/>
<path opacity="0.1" d="M61.8008 274.094C61.9076 274.231 62.0102 274.385 62.1213 274.521H64.382V277.443C64.6256 277.734 64.8649 278.025 65.1127 278.298V274.504H68.5315V280.608H67.1469C67.2836 280.749 67.4161 280.899 67.5742 281.036H93.5696V274.094H61.8008ZM72.6596 280.608H69.2409V274.53H72.6596V280.608ZM76.8006 280.608H73.3819V274.53H76.8006V280.608ZM80.9416 280.608H77.5228V274.53H80.9416V280.608ZM85.0783 280.608H81.6595V274.53H85.0783V280.608ZM89.215 280.608H85.7962V274.53H89.215V280.608ZM93.3517 280.608H89.9329V274.53H93.3517V280.608Z" fill="#0046EA"/>
<path opacity="0.1" d="M84.6171 294.346C85.006 294.568 85.4034 294.774 85.8051 294.996V294.782H89.2239V296.707L89.9504 297.045V294.782H93.3692V298.482C93.4347 298.515 93.5034 298.541 93.5743 298.559V294.346H84.6171Z" fill="#0046EA"/>
<path opacity="0.1" d="M312.905 250.032C312.986 250.305 313.054 250.579 313.131 250.848C313.063 250.579 312.99 250.305 312.905 250.032ZM108.579 123.961V125.787H127.668V123.961H108.579ZM312.905 250.032C312.986 250.305 313.054 250.579 313.131 250.848C313.063 250.579 312.99 250.305 312.905 250.032ZM312.905 250.032C312.986 250.305 313.054 250.579 313.131 250.848C313.063 250.579 312.99 250.305 312.905 250.032Z" fill="#0046EA"/>
<path d="M241.534 207.592C241.534 207.592 239.85 207.356 239.85 204.901C239.85 202.446 238.645 197.861 238.645 197.861C238.645 197.839 237.603 189.875 236.162 188.609C234.722 187.343 232.872 179.909 232.872 179.909C232.872 179.909 232.556 175.875 231.91 175.007C231.265 174.138 230.393 172.013 229.107 168.98C227.821 165.947 222.458 163.847 222.458 163.847C222.458 163.847 212.761 158.218 210.013 156.383C209.764 156.232 209.53 156.056 209.317 155.857C208.838 155.228 206.753 155.215 206.753 155.215C206.535 153.838 206.325 152.255 206.257 150.823C206.257 150.669 206.257 150.515 206.236 150.361C209.3 148.548 211.607 145.689 212.735 142.311C212.787 142.148 212.829 141.977 212.876 141.814C213.06 141.754 213.229 141.656 213.373 141.526C213.516 141.396 213.631 141.238 213.71 141.062C213.958 140.51 213.962 139.864 214.27 139.351C214.629 138.743 215.312 138.418 215.851 137.961C217.21 136.806 217.56 134.859 217.496 133.089C217.453 131.656 217.223 130.21 217.312 128.786L217.338 128.426C217.364 128.212 217.394 127.999 217.432 127.793C217.641 126.732 218.099 125.732 218.355 124.679C218.611 123.627 218.637 122.442 218.039 121.535C217.163 120.205 215.338 119.94 213.735 119.803C211.919 119.649 210.295 119.85 209.133 118.34C208.589 117.551 207.977 116.811 207.304 116.129C207.065 115.906 204.74 114.486 204.74 114.392C202.471 113.34 199.899 113.143 197.496 113.836C196.291 114.187 195.154 114.76 193.932 115.047C191.296 115.671 188.261 114.995 186.022 116.505C184.774 117.361 184.026 118.721 183.326 120.047C182.756 121.139 182.177 122.23 181.591 123.319C180.646 125.111 179.685 126.933 179.287 128.918C179.204 129.35 179.152 129.788 179.133 130.227V130.248C179.133 130.407 179.133 130.565 179.133 130.723V130.924C179.133 131.074 179.133 131.219 179.159 131.352C179.185 131.485 179.18 131.527 179.193 131.617C179.206 131.707 179.227 131.908 179.253 132.045C179.279 132.182 179.33 132.421 179.381 132.61C179.403 132.691 179.432 132.768 179.458 132.845C179.501 132.99 179.552 133.131 179.608 133.273C179.638 133.345 179.668 133.422 179.702 133.495C179.766 133.645 179.843 133.79 179.92 133.923C179.954 133.983 179.979 134.038 180.014 134.094C180.133 134.293 180.264 134.484 180.407 134.667C181.321 135.809 182.667 136.536 183.663 137.605C183.663 137.648 183.663 137.691 183.663 137.73C183.663 137.849 183.663 137.965 183.663 138.085C183.716 140.469 184.35 142.805 185.511 144.889C186.671 146.972 188.322 148.741 190.321 150.04C190.321 150.202 190.343 150.369 190.351 150.532C190.434 151.801 190.419 153.076 190.304 154.343C190.13 154.138 189.912 153.974 189.667 153.865C189.421 153.755 189.154 153.702 188.885 153.71C188.702 153.701 188.518 153.717 188.338 153.757L188.3 153.727V153.765C187.36 153.996 186.202 154.976 185.095 157.76C185.095 157.76 181.727 161.559 179.163 161.4C176.599 161.242 170.108 165.353 170.108 165.353C170.108 165.353 163.775 169.468 162.416 173.659C161.656 176.036 160.745 178.362 159.689 180.623L151.86 196.77L150.416 209.581C150.416 209.581 151.215 215.278 151.057 216.146C150.899 217.015 154.343 224.846 154.343 224.846C154.343 224.846 165.723 244.86 170.373 245.887L170.706 245.652C170.905 245.756 171.116 245.835 171.334 245.887L172.292 245.211C172.349 245.964 172.325 246.721 172.219 247.469C171.578 249.446 172.458 262.342 173.578 264.87C174.698 267.398 174.3 300.543 174.3 300.543L174.142 303.469C174.142 303.469 174.142 303.563 174.18 303.725L174.142 304.418L174.257 304.478C174.377 305.406 174.338 306.348 174.142 307.263C173.74 308.546 173.578 312.173 173.578 312.173C173.578 312.173 170.377 332.653 171.894 336.768C173.411 340.883 174.702 345.391 174.702 345.391C174.702 345.391 176.304 350.524 174.779 351.401C173.253 352.277 168.916 353.749 169.809 355.888C170.621 357.864 173.702 363.159 174.159 363.933L174.121 364.34L173.492 371.153C173.594 372.053 173.838 372.931 174.215 373.754C174.903 375.238 176.24 376.778 178.783 376.611C179.21 376.581 179.706 376.53 180.185 376.466C184.838 375.841 190.569 373.763 190.569 373.763C190.272 373.573 189.999 373.348 189.757 373.091C189.528 372.87 189.347 372.603 189.224 372.309C189.102 372.015 189.04 371.699 189.043 371.38C189.112 370.141 186.791 364.228 186.214 362.774C186.125 362.565 186.078 362.445 186.078 362.445C186.078 362.445 191.368 356.91 190.488 352.004C190.488 352.004 184.633 348.582 186.561 346.704C188.488 344.826 191.932 339.433 191.932 339.433C191.932 339.433 192.09 319.265 191.932 316.254C191.767 314.164 191.866 312.061 192.227 309.996C192.291 309.684 192.368 309.38 192.449 309.08C195.115 309.479 197.806 309.683 200.501 309.692C201.483 309.692 202.483 309.692 203.492 309.632C203.492 309.917 203.505 310.225 203.53 310.556C203.753 315.552 204.167 324.312 204.505 327.567C204.983 332.234 207.629 344.809 207.629 344.809C207.629 344.809 202.582 348.051 208.509 356.042C208.509 356.042 208.509 358.937 208.116 359.356C207.696 360.727 207.358 362.121 207.103 363.531C206.855 365.037 206.753 366.56 207.154 367.351C208.116 369.241 213.885 369.087 213.885 369.087L214.026 369.062C215.115 368.949 216.216 369.054 217.264 369.371C218.312 369.688 219.288 370.209 220.133 370.905C222.325 372.668 230.645 371.893 235.15 371.333C236.915 371.112 238.094 370.905 238.094 370.905C238.151 370.705 238.172 370.497 238.154 370.289C238.107 369.182 237.239 366.753 231.359 364.583C231.359 364.583 225.829 360.862 225.906 357.62H225.791H225.15C225.616 357.594 225.915 357.62 225.915 357.62C225.915 357.62 223.748 349.707 224.633 349.065C225.517 348.424 222.868 339.655 222.868 339.655C222.868 339.655 221.351 324.941 221.27 323.91C221.273 323.025 221.407 322.146 221.667 321.301L221.27 313.234C221.27 313.234 221.193 310.552 221.27 309.679C221.257 308.922 221.195 308.166 221.086 307.417C221.047 307.117 221.009 306.805 220.966 306.497C223.039 305.971 224.385 305.483 224.385 305.483L224.146 277.402C225.906 273.98 226.231 266.474 226.222 261.148C226.222 257.726 226.069 255.194 226.069 255.194L228.475 251.263C228.475 251.263 229.03 246.558 228.15 245.527C227.761 245.061 227.936 244.578 228.257 244.18C228.423 244.048 228.599 243.928 228.782 243.821C228.782 243.821 228.757 243.782 228.727 243.727C228.895 243.586 229.073 243.459 229.261 243.346C229.261 243.346 228.406 242.02 229.171 241.46C229.889 241.947 230.53 242.315 231.017 242.615C230.983 242.927 230.949 243.106 230.949 243.106L231.154 242.679C231.624 242.944 231.91 243.106 231.91 243.106C231.91 243.106 235.68 235.591 235.598 234.483C235.517 233.376 238.162 228.709 238.162 228.709C238.162 228.709 238.483 226.258 239.927 225.231C241.372 224.205 241.047 216.767 241.047 216.767C241.047 216.767 241.449 212.891 242.41 211.309C243.372 209.726 241.534 207.592 241.534 207.592ZM169.416 204.294L169.488 206.086C169.061 205.397 168.753 204.901 168.753 204.901L169.416 204.294Z" fill="url(#paint0_linear_41_821)"/>
<path d="M232.116 239.862L231.192 243.797C231.192 243.797 223.799 240.02 222.466 235.221C221.133 230.422 224.697 228.6 224.697 228.6L231.586 231.521L232.116 239.862Z" fill="white"/>
<path opacity="0.1" d="M232.116 239.862L231.192 243.797C231.192 243.797 223.799 240.02 222.466 235.221C221.133 230.422 224.697 228.6 224.697 228.6L231.586 231.521L232.116 239.862Z" fill="black"/>
<path d="M190.625 373.789C190.625 373.789 183.787 376.304 179.086 376.621C176.591 376.788 175.279 375.256 174.603 373.781C174.235 372.96 173.997 372.087 173.898 371.193L174.509 364.413L174.834 360.803L184.821 358.207L186.236 362.536L186.368 362.865C186.937 364.311 189.214 370.192 189.146 371.42C189.143 371.734 189.204 372.046 189.324 372.336C189.445 372.626 189.622 372.889 189.847 373.109C190.076 373.368 190.337 373.597 190.625 373.789Z" fill="white"/>
<path d="M237.329 370.342C237.346 370.548 237.326 370.755 237.269 370.953C237.269 370.953 222.646 373.396 219.654 370.953C218.811 370.24 217.828 369.711 216.768 369.4C215.708 369.089 214.595 369.003 213.5 369.148C213.5 369.148 207.842 369.302 206.898 367.437C206.505 366.655 206.607 365.136 206.851 363.639C207.099 362.236 207.43 360.849 207.842 359.486L208.069 359.306L209.415 358.224L225.175 357.758H225.295C225.218 360.983 230.645 364.683 230.645 364.683C236.41 366.821 237.261 369.238 237.329 370.342Z" fill="white"/>
<path opacity="0.1" d="M237.328 370.342C237.343 370.548 237.321 370.755 237.264 370.953C237.264 370.953 222.645 373.396 219.653 370.953C218.81 370.24 217.828 369.712 216.769 369.401C215.71 369.09 214.598 369.004 213.504 369.148C213.504 369.148 207.841 369.302 206.901 367.437C206.508 366.65 206.606 365.136 206.85 363.639C209.029 363.857 212.469 364.4 213.82 365.697C215.863 367.668 219.324 369.636 221.448 369.79C223.11 369.897 233.055 370.213 237.328 370.342Z" fill="black"/>
<path opacity="0.1" d="M190.624 373.789C190.624 373.789 183.786 376.304 179.085 376.621C176.59 376.788 175.278 375.256 174.607 373.776C176.346 374.362 178.76 374.978 180.03 374.414C181.534 373.747 186.867 373.315 189.859 373.131C190.086 373.38 190.343 373.601 190.624 373.789Z" fill="black"/>
<path d="M200.77 171.107C195.129 168.912 187.872 161.662 189.684 158.275C190.087 157.42 190.326 156.497 190.389 155.554C190.506 154.274 190.523 152.987 190.441 151.705C190.314 149.604 190.061 147.513 189.684 145.443C189.684 145.443 207.295 145.84 206.27 148.437C205.97 149.198 205.923 150.52 206.005 152C206.086 153.48 206.3 155.152 206.522 156.568C206.829 158.51 207.137 159.99 207.137 159.99C207.137 159.99 206.06 161.5 205.428 161.581C204.795 161.662 208.864 174.233 200.77 171.107Z" fill="#CF6F80"/>
<path opacity="0.1" d="M186.354 362.865L186.222 363.01C180.957 356.637 174.59 364.58 174.59 364.58L174.496 364.413L174.82 360.803L184.807 358.207L186.222 362.536L186.354 362.865Z" fill="black"/>
<path opacity="0.1" d="M225.298 358.206C225.298 358.206 221.452 358.125 219.401 359.938C217.35 361.752 207.435 360.332 207.863 359.938C207.989 359.743 208.066 359.52 208.085 359.288L209.431 358.206L225.191 357.74C225.251 358.026 225.298 358.206 225.298 358.206Z" fill="black"/>
<path d="M192.906 308.156C192.619 308.865 192.402 309.6 192.256 310.351C191.9 312.406 191.801 314.498 191.961 316.579C192.119 319.573 191.961 339.638 191.961 339.638C191.961 339.638 188.581 344.989 186.696 346.875C184.812 348.761 190.542 352.149 190.542 352.149C191.397 357.025 186.218 362.535 186.218 362.535C180.953 356.161 174.585 364.109 174.585 364.109C174.585 364.109 171.124 358.12 170.261 355.982C169.397 353.843 173.641 352.363 175.132 351.495C176.624 350.626 175.06 345.506 175.06 345.506C175.06 345.506 173.799 341.019 172.303 336.926C170.808 332.833 173.953 312.455 173.953 312.455C173.953 312.455 174.115 308.837 174.504 307.575C174.7 306.664 174.739 305.727 174.619 304.803C174.594 304.491 174.564 304.23 174.543 304.055C174.521 303.879 174.504 303.798 174.504 303.798L174.564 303.695L176.701 299.709C176.701 299.709 193.931 305.646 192.906 308.156Z" fill="#0046EA"/>
<path d="M225.298 357.736C225.298 357.736 221.452 357.655 219.401 359.447C217.35 361.24 207.435 359.841 207.863 359.447C208.29 359.054 208.256 356.141 208.256 356.141C202.44 348.194 207.401 344.968 207.401 344.968C207.401 344.968 204.803 332.457 204.333 327.816C204.004 324.574 203.598 315.861 203.38 310.886C203.286 308.748 203.23 307.276 203.23 307.276L207.982 306.318L208.593 306.194L220.055 303.893C220.055 303.893 220.371 306.032 220.585 307.781C220.691 308.528 220.751 309.281 220.764 310.035C220.687 310.891 220.764 313.568 220.764 313.568L221.153 321.597C220.899 322.439 220.768 323.314 220.764 324.193C220.841 325.216 222.333 339.853 222.333 339.853C222.333 339.853 224.926 348.587 224.042 349.216C223.157 349.845 225.298 357.736 225.298 357.736Z" fill="#0046EA"/>
<path opacity="0.1" d="M206.27 148.437C205.971 149.198 205.924 150.52 206.005 152C203.646 153.422 200.934 154.149 198.181 154.097C195.428 154.046 192.745 153.218 190.441 151.709C190.314 149.607 190.061 147.514 189.684 145.443C189.684 145.443 207.295 145.832 206.27 148.437Z" fill="black"/>
<path d="M213.077 138.984C213.081 140.525 212.838 142.057 212.359 143.522C211.289 146.804 209.093 149.602 206.161 151.421C203.229 153.24 199.748 153.962 196.335 153.461C192.922 152.96 189.796 151.267 187.509 148.682C185.222 146.097 183.922 142.786 183.838 139.335C183.838 139.215 183.838 139.104 183.838 138.984C183.805 137.041 184.159 135.111 184.879 133.306C185.599 131.501 186.67 129.858 188.031 128.472C189.392 127.087 191.015 125.986 192.806 125.235C194.596 124.483 196.518 124.096 198.46 124.096C200.401 124.096 202.323 124.483 204.114 125.235C205.904 125.986 207.527 127.087 208.888 128.472C210.249 129.858 211.321 131.501 212.041 133.306C212.761 135.111 213.115 137.041 213.082 138.984H213.077Z" fill="#CF6F80"/>
<path opacity="0.1" d="M200.77 171.108C195.129 168.913 187.872 161.663 189.684 158.276C190.087 157.421 190.326 156.498 190.389 155.555L198.112 161.907L202.889 165.829L206.522 156.573C206.829 158.515 207.137 159.995 207.137 159.995C207.137 159.995 206.06 161.505 205.428 161.586C204.795 161.668 208.864 174.234 200.77 171.108Z" fill="black"/>
<path d="M220.741 199.178L214.292 307.609L205.882 308.161L184.104 245.288L187.677 170.644L188.429 154.873L198.113 162.833L202.895 166.756L206.634 157.23L213.587 163.295L220.741 199.178Z" fill="#0046EA"/>
<path opacity="0.1" d="M192.906 308.158C192.619 308.866 192.402 309.601 192.256 310.352C186.136 309.406 180.193 307.548 174.624 304.838L174.508 304.778L174.547 304.09L174.568 303.73L176.705 299.744C176.705 299.744 193.931 305.647 192.906 308.158Z" fill="black"/>
<path opacity="0.1" d="M208.081 310.369C206.516 310.635 204.938 310.815 203.354 310.908C203.26 308.769 203.205 307.298 203.205 307.298L207.957 306.34L208.081 310.369Z" fill="black"/>
<path opacity="0.1" d="M220.559 307.803C217.521 308.594 212.828 309.484 208.628 308.927L208.568 306.216L220.029 303.914C220.029 303.914 220.345 306.032 220.559 307.803Z" fill="black"/>
<path opacity="0.1" d="M208.553 309.423C191.032 312.417 174.985 303.832 174.985 303.832L175.139 300.924C175.139 300.924 175.536 267.949 174.434 265.421C173.331 262.894 172.472 250.074 173.096 248.107C173.72 246.139 170.818 216.634 170.818 216.634L170.348 204.657L153.143 197.681L160.835 181.632C161.874 179.382 162.768 177.068 163.511 174.703C164.848 170.537 171.058 166.443 171.058 166.443C171.058 166.443 177.425 162.354 179.942 162.508C182.459 162.662 185.758 158.89 185.758 158.89C188.194 152.675 190.399 155.489 190.399 155.489C190.399 155.784 190.399 155.489 190.279 156.409C189.425 163.231 204.1 184.789 204.309 185.17L205.707 219.243L207.121 262.363L208.553 309.423Z" fill="black"/>
<path d="M208.081 309.424C190.56 312.418 174.508 303.833 174.508 303.833L174.667 300.925C174.667 300.925 175.064 267.95 173.957 265.422C172.85 262.895 171.996 250.075 172.624 248.108C173.252 246.14 170.346 216.635 170.346 216.635L169.872 204.658L152.658 197.656L160.351 181.608C161.387 179.357 162.281 177.042 163.026 174.678C164.359 170.512 170.573 166.419 170.573 166.419C170.573 166.419 176.94 162.33 179.453 162.484C181.966 162.638 185.269 158.865 185.269 158.865C187.709 152.65 190.397 155.464 190.397 155.464C190.397 155.76 190.141 155.892 190.277 156.384C192.158 163.001 203.628 184.764 203.837 185.145L205.252 219.218L206.666 262.338L208.081 309.424Z" fill="white"/>
<path opacity="0.1" d="M203.359 186.115C201.475 185.328 191.492 173.92 191.492 173.92V171.324C191.129 170.468 188.971 170.99 187.219 171.589L187.971 155.818L188.825 156.529C190.697 163.141 203.142 185.734 203.359 186.115Z" fill="black"/>
<path d="M203.834 185.17C201.945 184.383 191.962 172.975 191.962 172.975V170.379C191.599 169.523 189.441 170.045 187.689 170.644L188.445 154.873L189.3 155.583C191.176 162.196 203.624 184.793 203.834 185.17Z" fill="white"/>
<path opacity="0.1" d="M174.983 242.065C175.218 242.065 187.166 240.807 187.166 240.807C187.166 240.807 194.401 255.047 193.927 258.511C193.453 261.976 192.594 265.043 189.683 264.5C186.773 263.956 174.021 264.927 174.021 264.927L174.983 242.065Z" fill="black"/>
<path d="M174.508 241.119C174.743 241.119 186.692 239.861 186.692 239.861C186.692 239.861 193.923 254.105 193.453 257.565C192.982 261.025 192.115 264.096 189.209 263.553C186.303 263.01 173.547 263.981 173.547 263.981L174.508 241.119Z" fill="white"/>
<path d="M183.514 234.434C183.514 234.434 194.479 240.332 194.714 242.133C194.949 243.934 189.133 241.346 187.877 241.034C187.05 240.835 186.208 240.703 185.36 240.64L176.979 240.867L183.514 234.434Z" fill="#CF6F80"/>
<path opacity="0.1" d="M200.3 186.851C200.937 186.851 201.454 186.334 201.454 185.696C201.454 185.058 200.937 184.541 200.3 184.541C199.662 184.541 199.146 185.058 199.146 185.696C199.146 186.334 199.662 186.851 200.3 186.851Z" fill="black"/>
<path d="M200.3 186.38C200.937 186.38 201.454 185.863 201.454 185.225C201.454 184.587 200.937 184.07 200.3 184.07C199.662 184.07 199.146 184.587 199.146 185.225C199.146 185.863 199.662 186.38 200.3 186.38Z" fill="#3F3D56"/>
<path opacity="0.1" d="M202.424 236.844C203.061 236.844 203.577 236.327 203.577 235.69C203.577 235.052 203.061 234.535 202.424 234.535C201.786 234.535 201.27 235.052 201.27 235.69C201.27 236.327 201.786 236.844 202.424 236.844Z" fill="black"/>
<path d="M202.424 236.371C203.061 236.371 203.577 235.854 203.577 235.216C203.577 234.578 203.061 234.061 202.424 234.061C201.786 234.061 201.27 234.578 201.27 235.216C201.27 235.854 201.786 236.371 202.424 236.371Z" fill="#3F3D56"/>
<path opacity="0.1" d="M201.449 211.849C202.086 211.849 202.603 211.332 202.603 210.694C202.603 210.056 202.086 209.539 201.449 209.539C200.812 209.539 200.295 210.056 200.295 210.694C200.295 211.332 200.812 211.849 201.449 211.849Z" fill="black"/>
<path d="M201.449 211.378C202.086 211.378 202.603 210.861 202.603 210.223C202.603 209.585 202.086 209.068 201.449 209.068C200.812 209.068 200.295 209.585 200.295 210.223C200.295 210.861 200.812 211.378 201.449 211.378Z" fill="#3F3D56"/>
<path d="M228.047 240.401C228.047 240.401 228.834 241.581 228.047 242.133C227.261 242.685 228.124 244.02 228.124 244.02C228.124 244.02 226.163 245.17 227.026 246.205C227.889 247.24 227.342 251.916 227.342 251.916L224.983 255.825C224.983 255.825 225.124 258.344 225.133 261.749C225.133 267.062 224.821 274.53 223.094 277.935L223.334 305.87C223.334 305.87 215.073 308.89 208.159 307.97L207.133 263.144C207.133 263.144 208.629 237.723 209.18 232.847C209.503 230.316 209.634 227.763 209.573 225.212C209.573 225.212 209.338 217.581 208.547 214.04C208.547 214.04 207.693 198.697 207.607 194.449C207.569 192.418 207.676 186.489 207.795 180.852C207.928 174.688 208.077 168.875 208.077 168.875L206.518 156.522C206.518 156.522 208.077 156.364 208.547 156.992C208.758 157.189 208.987 157.366 209.231 157.519C211.923 159.341 221.436 164.944 221.436 164.944C221.436 164.944 226.701 167.04 227.962 170.043C229.222 173.045 230.098 175.176 230.71 176.031C231.321 176.886 231.654 180.907 231.654 180.907C231.654 180.907 233.466 188.307 234.88 189.56C236.295 190.814 237.329 198.787 237.329 198.787L224.829 208.624C224.829 208.624 223.731 224.99 223.496 225.623C223.261 226.256 228.047 240.401 228.047 240.401Z" fill="white"/>
<path d="M228.522 240.4C228.522 240.4 229.304 241.58 228.522 242.132C227.74 242.684 228.594 244.019 228.594 244.019C228.594 244.019 226.646 245.182 227.5 246.217C228.355 247.252 227.816 251.927 227.816 251.927L225.458 255.837C225.458 255.837 225.599 258.356 225.611 261.761C225.611 267.073 225.299 274.542 223.573 277.947L223.808 305.882C223.808 305.882 215.535 308.902 208.629 307.982L207.607 263.155C207.607 263.155 209.103 237.735 209.654 232.859C209.977 230.327 210.107 227.775 210.043 225.224C210.043 225.224 209.808 217.593 209.022 214.051C209.022 214.051 208.167 198.709 208.077 194.461C208.039 192.429 208.15 186.501 208.265 180.863C208.398 174.7 208.547 168.887 208.547 168.887L206.488 156.367C206.488 156.367 208.547 156.367 209.022 157.004C209.23 157.203 209.46 157.38 209.706 157.53C212.398 159.353 221.915 164.956 221.915 164.956C221.915 164.956 227.175 167.052 228.436 170.054C229.697 173.057 230.573 175.187 231.188 176.043C231.804 176.898 232.128 180.919 232.128 180.919C232.128 180.919 233.94 188.319 235.355 189.572C236.769 190.825 237.791 198.781 237.791 198.781L225.291 208.619C225.291 208.619 224.193 224.984 223.953 225.617C223.714 226.25 228.522 240.4 228.522 240.4Z" fill="white"/>
<path opacity="0.1" d="M213.551 172.519L214.679 175.813L208.739 181.801C208.871 175.642 209.021 169.825 209.021 169.825L206.961 157.305C206.961 157.305 209.021 157.305 209.495 157.942C209.703 158.141 209.932 158.316 210.179 158.464L215.23 173.05L213.551 172.519Z" fill="black"/>
<path d="M213.077 171.572L214.21 174.866L208.27 180.854C208.402 174.69 208.552 168.877 208.552 168.877L206.488 156.357C206.488 156.357 208.552 156.357 209.022 156.995C209.231 157.193 209.461 157.369 209.706 157.521L214.761 172.102L213.077 171.572Z" fill="white"/>
<path opacity="0.1" d="M213.077 138.984C213.081 140.525 212.838 142.057 212.359 143.522C212.279 143.535 212.196 143.531 212.117 143.511C212.038 143.491 211.963 143.456 211.898 143.407C211.787 139.557 209.894 135.943 207.565 132.867C206.911 131.939 206.118 131.116 205.214 130.429C204.3 129.742 203.164 129.42 202.026 129.527C200.744 129.702 199.612 130.575 198.317 130.686C196.607 130.827 195.077 129.642 193.381 129.582C192.691 129.589 192.011 129.742 191.385 130.033C190.76 130.324 190.203 130.744 189.753 131.267C188.861 132.323 188.199 133.552 187.808 134.878C187.136 136.887 186.771 138.987 186.723 141.105C186.702 142.303 186.586 143.804 185.475 144.241C185.559 143.36 185.459 142.471 185.181 141.631C184.904 140.791 184.455 140.018 183.864 139.36L183.838 139.335C183.838 139.215 183.838 139.104 183.838 138.984C183.805 137.041 184.159 135.111 184.879 133.306C185.599 131.501 186.67 129.858 188.031 128.472C189.392 127.087 191.015 125.986 192.806 125.235C194.596 124.483 196.518 124.096 198.46 124.096C200.401 124.096 202.323 124.483 204.114 125.235C205.904 125.986 207.527 127.087 208.888 128.472C210.249 129.858 211.321 131.501 212.041 133.306C212.761 135.111 213.115 137.041 213.082 138.984H213.077Z" fill="black"/>
<path d="M204.512 115.746C202.292 114.7 199.766 114.503 197.41 115.19C196.226 115.541 195.111 116.109 193.91 116.396C191.346 117.016 188.354 116.345 186.154 117.846C184.931 118.702 184.196 120.053 183.513 121.366L181.803 124.626C180.872 126.409 179.931 128.223 179.543 130.186C179.154 132.15 179.389 134.348 180.632 135.926C181.538 137.077 182.876 137.8 183.859 138.882C184.448 139.54 184.894 140.313 185.171 141.152C185.447 141.991 185.548 142.879 185.466 143.758C186.581 143.331 186.688 141.825 186.713 140.627C186.761 138.509 187.127 136.409 187.799 134.399C188.189 133.074 188.851 131.844 189.743 130.789C190.194 130.267 190.75 129.846 191.376 129.556C192.002 129.265 192.682 129.111 193.371 129.104C195.081 129.164 196.615 130.345 198.307 130.203C199.589 130.096 200.726 129.22 202.017 129.048C203.155 128.941 204.292 129.263 205.205 129.951C206.108 130.637 206.9 131.46 207.551 132.389C209.884 135.465 211.777 139.07 211.888 142.929C212.371 143.284 213.068 142.822 213.307 142.274C213.546 141.727 213.555 141.085 213.858 140.563C214.209 139.96 214.88 139.639 215.405 139.186C216.739 138.035 217.072 136.098 217.021 134.34C216.969 132.582 216.627 130.798 216.961 129.07C217.162 128.009 217.615 127.017 217.863 125.969C218.11 124.921 218.14 123.745 217.555 122.842C216.7 121.516 214.901 121.255 213.333 121.131C211.551 120.977 209.957 121.174 208.82 119.673C208.286 118.889 207.686 118.153 207.025 117.474C206.799 117.252 204.512 115.84 204.512 115.746Z" fill="#512E4E"/>
<path opacity="0.1" d="M158.066 205.946L153.6 197.682L152.186 210.433C152.186 210.433 152.972 216.096 152.814 216.964C152.656 217.833 156.036 225.617 156.036 225.617C156.036 225.617 167.203 245.524 171.763 246.551L187.168 235.532L183.083 230.34C183.083 230.34 181.668 229.788 181.314 230.34C181.314 230.34 173.728 217.277 172.942 216.331C172.156 215.386 172.31 213.5 172.31 213.5C172.31 213.5 171.13 212.242 171.523 211.062C171.916 209.881 169.246 205.788 169.246 205.788L171.681 203.508L158.066 205.946Z" fill="black"/>
<path d="M153.834 196.74L152.655 197.681L151.24 210.432C151.24 210.432 152.027 216.095 151.869 216.963C151.711 217.832 155.095 225.616 155.095 225.616C155.095 225.616 166.257 245.523 170.817 246.55L186.227 235.531L182.138 230.339C182.138 230.339 180.723 229.787 180.368 230.339C180.368 230.339 172.783 217.276 171.997 216.33C171.21 215.385 171.368 213.499 171.368 213.499C171.368 213.499 170.189 212.241 170.582 211.061C170.975 209.88 168.3 205.787 168.3 205.787L170.736 203.507L153.834 196.74Z" fill="white"/>
<path opacity="0.1" d="M227.025 246.692C227.879 247.731 227.341 252.398 227.341 252.398L224.982 256.307C224.982 256.307 225.123 258.831 225.132 262.232L221.166 263.472C220.807 263.584 220.427 263.609 220.058 263.544C219.688 263.479 219.339 263.327 219.04 263.099C218.741 262.872 218.5 262.576 218.339 262.237C218.177 261.898 218.099 261.525 218.11 261.149L218.794 239.074L228.046 242.616C227.26 243.163 228.123 244.506 228.123 244.506C228.123 244.506 226.162 245.653 227.025 246.692Z" fill="black"/>
<path d="M227.5 246.218C228.355 247.258 227.816 251.928 227.816 251.928L225.457 255.838C225.457 255.838 225.598 258.357 225.611 261.762L221.573 263.024C221.222 263.133 220.85 263.157 220.488 263.093C220.126 263.029 219.784 262.88 219.492 262.657C219.199 262.434 218.964 262.145 218.806 261.813C218.647 261.481 218.57 261.116 218.581 260.748L219.27 238.604L228.526 242.146C227.735 242.694 228.598 244.032 228.598 244.032C228.598 244.032 226.645 245.183 227.5 246.218Z" fill="white"/>
<path d="M230.563 235.694C230.563 235.694 229.935 239.71 228.362 239.946C226.79 240.181 226.085 246.443 224.516 246.22C222.948 245.998 223.986 240.399 224.042 239.312C224.097 238.226 222.333 233.726 223.653 232.704C224.974 231.682 229.153 232.704 229.153 232.704L230.563 235.694Z" fill="#CF6F80"/>
<path opacity="0.1" d="M233.909 204.765L236.875 198.777C236.875 198.777 238.055 203.341 238.055 205.779C238.055 208.217 239.704 208.457 239.704 208.457C239.704 208.457 241.512 210.595 240.559 212.152C239.606 213.709 239.221 217.584 239.221 217.584C239.221 217.584 239.533 224.98 238.119 226.002C236.704 227.025 236.409 229.467 236.409 229.467C236.409 229.467 233.811 234.108 233.892 235.211C233.973 236.315 230.277 243.788 230.277 243.788C230.277 243.788 232.085 234.501 221.551 230.489C221.551 230.489 221.469 227.337 222.256 226.473C223.042 225.609 224.268 225.215 223.499 220.848C222.73 216.481 223.277 211.263 223.277 210.215C223.277 209.167 225.636 202.631 225.636 202.631L233.909 204.765Z" fill="black"/>
<path d="M235.192 197.922L237.782 198.778C237.782 198.778 238.966 203.342 238.966 205.78C238.966 208.218 240.615 208.458 240.615 208.458C240.615 208.458 242.423 210.596 241.47 212.153C240.517 213.71 240.137 217.585 240.137 217.585C240.137 217.585 240.449 224.981 239.034 226.003C237.62 227.026 237.303 229.468 237.303 229.468C237.303 229.468 234.709 234.109 234.791 235.212C234.872 236.316 231.171 243.789 231.171 243.789C231.171 243.789 232.983 234.502 222.445 230.49C222.445 230.49 222.368 227.338 223.154 226.474C223.94 225.61 225.167 225.216 224.398 220.849C223.628 216.482 224.175 211.264 224.175 210.216C224.175 209.168 226.534 202.632 226.534 202.632L235.192 197.922Z" fill="white"/>
<path opacity="0.1" d="M177.992 353.133C177.992 353.133 182.12 350.537 184.83 352.423C187.539 354.309 177.992 353.133 177.992 353.133Z" fill="black"/>
<path opacity="0.1" d="M210.068 345.105C210.068 345.105 213.722 344.635 216.79 347.941C219.858 351.248 210.068 345.105 210.068 345.105Z" fill="black"/>
<g opacity="0.1">
<path d="M215.415 138.247C214.889 138.7 214.214 139.026 213.863 139.629C213.564 140.146 213.556 140.784 213.316 141.34C213.077 141.896 212.381 142.349 211.898 141.998C211.787 138.149 209.889 134.534 207.56 131.455C206.909 130.525 206.118 129.703 205.214 129.017C204.299 128.328 203.161 128.006 202.022 128.114C200.74 128.289 199.612 129.162 198.317 129.269C196.607 129.414 195.073 128.229 193.377 128.17C192.687 128.176 192.007 128.331 191.382 128.622C190.757 128.914 190.202 129.335 189.753 129.859C188.861 130.912 188.198 132.141 187.808 133.465C187.137 135.475 186.771 137.574 186.723 139.693C186.697 140.886 186.586 142.375 185.484 142.82C185.509 143.136 185.509 143.453 185.484 143.769C186.595 143.341 186.706 141.836 186.731 140.638C186.779 138.519 187.145 136.42 187.817 134.41C188.207 133.085 188.869 131.855 189.761 130.8C190.211 130.278 190.767 129.857 191.392 129.567C192.017 129.276 192.696 129.122 193.385 129.115C195.095 129.175 196.633 130.355 198.325 130.214C199.607 130.107 200.744 129.23 202.03 129.059C203.17 128.952 204.308 129.274 205.223 129.962C206.126 130.648 206.918 131.471 207.569 132.4C209.898 135.475 211.795 139.081 211.906 142.939C212.389 143.294 213.086 142.832 213.325 142.285C213.564 141.737 213.573 141.096 213.872 140.574C214.222 139.971 214.898 139.65 215.423 139.197C216.757 138.046 217.09 136.108 217.039 134.35C217.039 134.295 217.039 134.239 217.039 134.188C216.957 135.711 216.551 137.263 215.415 138.247Z" fill="black"/>
<path d="M183.869 137.944C182.886 136.862 181.544 136.139 180.643 134.993C179.883 133.978 179.45 132.757 179.399 131.49C179.265 133.073 179.706 134.651 180.643 135.934C181.544 137.085 182.886 137.808 183.869 138.89C184.813 139.948 185.379 141.29 185.48 142.705C185.546 141.844 185.437 140.978 185.16 140.16C184.883 139.342 184.444 138.589 183.869 137.944Z" fill="black"/>
<path d="M217.873 125.031C217.621 126.079 217.172 127.076 216.967 128.132C216.846 128.838 216.801 129.555 216.835 130.271C216.849 129.863 216.893 129.457 216.967 129.056C217.172 127.995 217.621 127.003 217.873 125.955C218.02 125.377 218.068 124.778 218.014 124.184C217.987 124.469 217.94 124.753 217.873 125.031Z" fill="black"/>
</g>
<path opacity="0.1" d="M100.993 370.527C123.991 370.527 142.634 367.53 142.634 363.833C142.634 360.136 123.991 357.139 100.993 357.139C77.9956 357.139 59.3525 360.136 59.3525 363.833C59.3525 367.53 77.9956 370.527 100.993 370.527Z" fill="#0046EA"/>
<path d="M102.335 235.596H99.6555V295.98H102.335V235.596Z" fill="#535461"/>
<path d="M119.173 295.795L119.006 298.515L118.767 302.365L118.668 303.965L118.433 307.814L118.331 309.414L118.091 313.264L115.391 356.923C115.273 358.801 114.445 360.564 113.075 361.853C111.704 363.142 109.895 363.86 108.015 363.861H93.9716C92.0916 363.86 90.2826 363.142 88.913 361.853C87.5435 360.564 86.7162 358.801 86.5999 356.923L83.9119 313.234L83.6726 309.384L83.5743 307.784L83.335 303.935L83.2367 302.335L82.9974 298.485L82.8265 295.765C82.7968 295.241 82.8743 294.717 83.0542 294.225C83.2342 293.732 83.5128 293.282 83.8729 292.901C84.233 292.52 84.6672 292.217 85.1486 292.01C85.63 291.803 86.1486 291.696 86.6726 291.697H115.395C115.917 291.702 116.432 291.813 116.91 292.025C117.387 292.237 117.816 292.544 118.17 292.928C118.524 293.312 118.795 293.764 118.968 294.257C119.14 294.751 119.21 295.274 119.173 295.795Z" fill="#3F3D56"/>
<path d="M119.006 298.516L118.767 302.353H83.2198L82.9805 298.516H119.006Z" fill="#9D9CB5"/>
<path d="M118.668 303.953L118.433 307.794H83.5577L83.3184 303.953H118.668Z" fill="#9D9CB5"/>
<path d="M118.33 309.398L118.095 313.235H83.8946L83.6553 309.398H118.33Z" fill="#9D9CB5"/>
<path d="M78.8906 258.227C94.4929 269.528 101.006 287.202 101.006 287.202C101.006 287.202 82.2025 286.556 66.5959 275.255C50.9893 263.954 44.4893 246.285 44.4893 246.285C44.4893 246.285 63.284 246.926 78.8906 258.227Z" fill="#0046EA"/>
<path d="M44.4766 246.285C44.4766 246.285 63.9977 257.128 70.2583 266.106C76.5189 275.084 101.006 287.202 101.006 287.202" stroke="#535461" stroke-width="2" stroke-miterlimit="10"/>
<path d="M88.9636 235.463C97.4549 241.609 101.006 251.229 101.006 251.229C101.006 251.229 90.7712 250.878 82.2756 244.732C73.78 238.585 70.2373 228.961 70.2373 228.961C70.2373 228.961 80.4679 229.312 88.9636 235.463Z" fill="#0046EA"/>
<path d="M70.2373 228.961C70.2373 228.961 80.8611 234.864 84.267 239.749C87.673 244.633 101.006 251.229 101.006 251.229" stroke="#535461" stroke-width="2" stroke-miterlimit="10"/>
<path d="M113.335 250.743C103.579 261.474 101.515 275.5 101.515 275.5C101.515 275.5 115.271 272.121 125.019 261.385C134.766 250.648 136.839 236.627 136.839 236.627C136.839 236.627 123.091 240.011 113.335 250.743Z" fill="#0046EA"/>
<path d="M136.848 236.633C136.848 236.633 124.138 247.634 120.908 255.213C117.677 262.793 101.515 275.501 101.515 275.501" stroke="#535461" stroke-width="2" stroke-miterlimit="10"/>
<path d="M471.477 246.966C471.477 246.966 464.42 211.831 467.121 207.46C467.121 207.46 467.219 203.396 467.057 198.217C467.057 198.02 467.057 197.823 467.057 197.622C467.532 197.939 468.027 198.225 468.54 198.478C471.028 199.757 473.885 200.126 476.616 199.521L474.48 197.139C473.967 196.57 473.433 195.954 473.322 195.201C473.211 194.448 473.518 193.777 473.783 193.105C475.813 187.972 475.921 181.518 472.01 177.6C468.706 174.306 467.903 170.055 464.318 167.048C461.698 164.845 460.258 161.615 458.899 158.493C457.749 155.854 456.591 153.193 455.934 150.396C455.421 148.21 455.215 145.947 454.51 143.813C453.805 141.679 452.485 139.604 450.421 138.65C449.686 138.312 448.869 138.12 448.198 137.671C447.318 137.076 446.788 136.109 446.151 135.262C442.916 130.985 432.083 133.504 426.955 135.241C425.561 135.678 424.27 136.394 423.16 137.346L423.207 137.269C423.245 137.204 423.292 137.14 423.335 137.076C422.774 137.53 422.289 138.072 421.899 138.68C421.151 139.865 420.839 141.246 420.216 142.53C419.463 144.048 415.28 148.287 417.079 149.994C417.205 150.108 417.349 150.201 417.507 150.267C418.182 150.549 418.925 150.623 419.643 150.481L419.566 150.665C418.952 152.171 418.637 153.782 418.639 155.409C418.639 162.437 424.429 168.134 431.579 168.134C432.924 168.135 434.259 167.929 435.54 167.522C435.57 167.685 435.596 167.847 435.626 168.01C435.626 168.074 435.647 168.138 435.655 168.202L435.429 168.519C435.418 168.499 435.405 168.481 435.391 168.463L428.681 177.848C427.656 178.571 421.75 182.848 421.416 186.056C421.066 189.568 420.716 193.678 420.716 193.678L420.669 194.559C420.375 194.805 420.032 194.983 419.663 195.083C419.295 195.183 418.909 195.201 418.533 195.137C416.438 194.795 416.438 202.836 416.438 202.836C416.438 202.836 415.045 204.119 414.087 203.007C413.13 201.895 410.6 205.663 410.6 205.663L394.746 206.348L394.383 206.369L393.529 203.722C393.437 203.442 393.238 203.211 392.977 203.077C392.715 202.943 392.41 202.918 392.13 203.007C392.064 203.029 392 203.056 391.938 203.089L391.878 203.123L391.767 203.2L391.712 203.251C391.681 203.279 391.652 203.309 391.626 203.341L391.576 203.401L391.549 203.426C391.451 203.563 391.385 203.721 391.358 203.887C391.332 204.054 391.344 204.224 391.395 204.385L392.13 206.656C389.071 207.272 385.942 209.008 388.494 213.79L375.562 211.399L379.746 214.915L401.344 219.377C401.058 219.89 401.246 220.634 402.139 221.682C405.985 226.203 412.993 227.431 415.814 227.747C416.559 229.415 417.489 230.994 418.587 232.453L418.344 236.957C418.344 236.957 411.203 271.287 409.895 273.028C410.555 272.279 411.159 271.483 411.703 270.645C409.63 277.698 406.733 287.352 405.972 288.798C404.75 291.108 403.617 300.454 405.011 301.053C405.438 301.237 406.66 301.147 408.404 301.014V301.789L408.327 331.127C408.327 331.127 408.677 349.122 407.716 350.837C406.754 352.552 406.498 356.149 406.498 356.149C406.498 356.149 402.653 363.246 399.605 366.099C399.584 366.121 399.561 366.141 399.536 366.158L399.442 365.491C399.442 365.491 395.78 370.119 387.677 369.858C387.677 369.858 382.802 373.032 390.033 373.203C397.264 373.374 406.498 372.947 406.498 372.947C406.498 372.947 412.946 363.109 418.348 364.392V371.847H420.003V364.272C420.77 363.767 421.425 363.111 421.931 362.344C422.437 361.577 422.784 360.715 422.947 359.811C423.089 358.879 422.984 357.926 422.645 357.046C422.307 356.166 421.746 355.39 421.016 354.794C420.688 354.497 420.424 354.135 420.242 353.732C420.06 353.329 419.965 352.892 419.96 352.45L419.899 352.501C419.899 352.351 419.861 352.197 419.844 352.039C419.369 348.189 418.775 340.246 420.874 334.369C423.75 326.311 424.621 315.087 422.527 308.406C421.852 306.27 421.297 304.098 420.865 301.9C420.814 301.622 420.767 301.357 420.724 301.108C422.155 301.302 423.573 301.588 424.968 301.964C429.818 303.303 440.43 303.551 449.49 303.478C449.511 303.726 449.536 303.987 449.566 304.248C449.728 306.062 450.065 307.855 450.574 309.603C451.711 313.025 452.232 328.111 452.232 328.111C452.232 328.111 453.698 340.516 452.899 345.563C452.471 348.369 452.044 351.188 451.801 354.019V354.075C451.801 354.075 449.399 360.919 447.643 364.636C447.6 364.73 447.553 364.824 447.51 364.914C447.042 364.956 446.581 365.059 446.138 365.217C446.138 365.217 443.785 369.923 441.438 370.701C439.091 371.48 439.869 374.042 445.181 373.101C450.493 372.16 458.514 371.39 458.514 371.39L458.86 366.59L460.493 364.546L460.065 369.332L461.805 368.99L461.574 363.169L464.245 359.824C464.245 359.824 467.471 356.949 462.676 351.295V351.419C462.625 351.337 462.578 351.252 462.523 351.171V351.145C461.729 349.913 461.095 347.616 462.253 343.54C464.347 336.174 465.565 329.489 465.565 329.489C465.565 329.489 470.24 311.579 464.621 303.106H464.869C464.293 301.914 463.886 300.647 463.659 299.342C463.631 299.188 463.605 299.03 463.582 298.867C467.74 298.628 471.822 297.875 475.151 296.249C475.138 296.232 473.134 253.732 471.477 246.966ZM418.686 217.324V217.409L417.831 217.452L418.686 217.324ZM415.754 217.73C415.614 217.761 415.482 217.824 415.369 217.914C415.002 218.434 414.771 219.039 414.698 219.672L413.365 219.372C413.365 219.372 412.429 219.171 411.083 218.945L410.447 218.303C412.2 218.158 414.019 217.944 415.754 217.73Z" fill="url(#paint1_linear_41_821)"/>
<path d="M459.868 363.228L459.359 369.289L461.064 368.947L460.808 362.373L459.868 363.228Z" fill="#1D2366"/>
<path d="M420.967 334.45C418.911 340.31 419.492 348.219 419.954 352.06C420.125 353.48 420.283 354.344 420.283 354.344C420.283 354.344 417.21 361.351 416.954 361.616C416.698 361.881 407.911 367.249 407.911 367.249L401.77 370.838C401.77 370.838 395.54 368.105 398.527 367.164C399.137 366.918 399.687 366.543 400.138 366.064C403.129 363.22 406.886 356.149 406.886 356.149C406.886 356.149 407.142 352.561 408.082 350.854C409.022 349.147 408.681 331.212 408.681 331.212L408.753 301.977V298.166L420.441 298.251C420.515 299.545 420.683 300.832 420.945 302.101C421.365 304.291 421.908 306.456 422.574 308.585C424.633 315.254 423.779 326.422 420.967 334.45Z" fill="#FFB0B1"/>
<path opacity="0.1" d="M420.283 354.343C420.283 354.343 417.21 361.35 416.954 361.615C416.698 361.88 407.911 367.248 407.911 367.248L401.77 370.837C401.77 370.837 395.54 368.104 398.527 367.163C399.137 366.917 399.687 366.542 400.138 366.063L400.403 367.933L402.45 367.847L419.971 352.068C420.125 353.479 420.283 354.343 420.283 354.343Z" fill="black"/>
<path d="M420.07 352.467L402.451 368.353L400.404 368.438L399.977 365.444C399.977 365.444 396.395 370.055 388.438 369.799C388.438 369.799 383.66 372.959 390.742 373.131C397.823 373.302 406.865 372.874 406.865 372.874C406.865 372.874 413.181 363.036 418.468 364.319V371.749H420.092V364.251C420.847 363.742 421.491 363.086 421.986 362.321C422.481 361.557 422.816 360.7 422.972 359.802C423.113 358.878 423.013 357.932 422.683 357.057C422.353 356.182 421.803 355.407 421.087 354.806C420.768 354.506 420.512 354.144 420.337 353.742C420.163 353.339 420.072 352.905 420.07 352.467Z" fill="#1D2366"/>
<path d="M461.493 343.588C460.356 347.651 460.976 349.94 461.753 351.167V351.193C462.751 352.709 463.445 354.404 463.796 356.185L463.864 356.57L455.847 368.268L451.497 369.979C451.497 369.979 444.501 367.588 445.779 366.904C446.1 366.737 446.6 365.847 447.172 364.62C448.882 360.92 451.241 354.093 451.241 354.093V354.037C451.489 351.219 451.882 348.408 452.318 345.611C453.1 340.577 451.664 328.219 451.664 328.219C451.664 328.219 451.151 313.193 450.04 309.775C449.538 308.038 449.205 306.256 449.044 304.454C448.813 302.316 448.762 300.553 448.762 300.553C448.762 300.553 453.369 294.137 461.813 301.067C462.488 301.619 463.083 302.264 463.578 302.983C469.411 311.29 464.715 329.588 464.715 329.588C464.715 329.588 463.54 336.244 461.493 343.588Z" fill="#FFB0B1"/>
<path opacity="0.1" d="M463.876 356.569L455.859 368.267L451.509 369.978C451.509 369.978 444.513 367.587 445.791 366.903C446.112 366.736 446.612 365.846 447.184 364.619C450.146 364.593 451.68 367.416 451.68 367.416L455.432 366.817C455.432 366.817 460.381 357.082 461.492 356.487C462.603 355.893 461.663 352.043 461.663 352.043V351.064C461.693 351.098 461.718 351.136 461.752 351.171V351.196C462.75 352.712 463.444 354.407 463.795 356.188L463.876 356.569Z" fill="black"/>
<path d="M451.937 367.668C451.937 367.668 449.801 363.742 445.707 365.192C445.707 365.192 443.403 369.897 441.1 370.658C438.796 371.42 439.566 373.986 444.771 373.049C449.976 372.113 457.822 371.339 457.822 371.339L458.164 366.552L463.454 359.807C463.454 359.807 466.608 356.945 461.916 351.312V352.291C461.916 352.291 462.856 356.141 461.745 356.735C460.634 357.33 455.702 367.07 455.702 367.07L451.937 367.668Z" fill="#1D2366"/>
<path opacity="0.1" d="M420.455 298.242C420.529 299.535 420.697 300.822 420.959 302.091C416.147 301.385 411.681 301.736 408.754 301.967V298.156L420.455 298.242Z" fill="black"/>
<path opacity="0.1" d="M464.053 304.046C464.053 304.046 457.215 304.38 449.061 304.448C448.831 302.309 448.779 300.547 448.779 300.547C448.779 300.547 453.386 294.131 461.83 301.06C462.506 301.613 463.1 302.258 463.595 302.977C463.728 303.341 463.88 303.698 464.053 304.046Z" fill="black"/>
<path d="M464.054 303.277C464.054 303.277 434.105 304.727 424.977 302.165C415.849 299.603 406.802 301.823 405.439 301.228C404.076 300.634 405.183 291.322 406.379 289.016C407.576 286.711 414.14 263.395 414.14 263.395L420.456 230.434L427.11 228.599L427.58 228.466L439.174 225.267L447.669 222.918C447.669 222.918 464.562 288.931 463.113 293.798C462.587 295.662 462.502 297.623 462.866 299.526C463.087 300.825 463.487 302.087 464.054 303.277Z" fill="#1D2366"/>
<path d="M398.437 207.893C398.437 207.893 392.454 214.309 396.984 217.885C401.514 221.461 404.493 218.227 404.493 218.227L398.437 207.893Z" fill="#C7DAF5"/>
<path opacity="0.1" d="M398.437 207.893C398.437 207.893 392.454 214.309 396.984 217.885C401.514 221.461 404.493 218.227 404.493 218.227L398.437 207.893Z" fill="black"/>
<path d="M446.776 165.709C446.776 165.709 446.075 166.376 445.02 167.36C443.515 168.767 441.289 170.824 439.315 172.548C436.58 174.931 434.323 176.68 435.131 175.187C435.939 173.695 435.785 171.094 435.383 168.66C435.353 168.498 435.327 168.335 435.298 168.177C434.965 166.389 434.524 164.624 433.977 162.89C433.977 162.89 438.396 157.175 440.84 154.921C441.75 154.066 442.387 153.715 442.426 154.31C442.468 155.109 443.067 156.876 443.81 158.749C443.832 158.809 443.853 158.865 443.879 158.925C444.374 160.208 444.934 161.525 445.426 162.663C446.178 164.408 446.776 165.709 446.776 165.709Z" fill="#FFB0B1"/>
<path opacity="0.1" d="M443.879 158.926C443.463 161.161 442.456 163.244 440.961 164.957C439.467 166.669 437.54 167.949 435.383 168.661C435.043 166.709 434.574 164.781 433.977 162.891C433.977 162.891 442.297 152.133 442.426 154.311C442.456 155.136 443.105 156.967 443.879 158.926Z" fill="black"/>
<path opacity="0.1" d="M434.553 171.534L435.63 170.016C435.63 170.016 436.344 174.37 438.967 172.45C441.591 170.529 441.72 186.903 441.72 186.903L438.903 229.048L418.553 227.829L419.13 207.464L421.434 197.199L427.13 182.275L430.519 177.343L434.553 171.534Z" fill="black"/>
<path d="M441.719 187.164L439.155 225.271L438.886 229.309L427.54 228.629L427.113 228.603L418.566 228.09L419.143 207.721L421.446 197.455L427.143 182.532L430.532 177.6L434.566 171.77L435.643 170.256C435.643 170.256 436.356 174.61 438.98 172.689L439.036 172.651C441.6 171.025 441.719 187.164 441.719 187.164Z" fill="#1D2366"/>
<path d="M421.733 193.889C421.733 193.889 420.711 196.028 418.66 195.681C416.609 195.335 416.613 203.38 416.613 203.38C416.613 203.38 415.25 204.664 414.31 203.551C413.369 202.439 410.891 206.199 410.891 206.199L395.361 206.884C395.361 206.884 402.271 210.045 400.917 219.609C400.917 219.609 424.378 218.154 425.147 215.934C425.916 213.714 421.733 193.889 421.733 193.889Z" fill="white"/>
<path opacity="0.03" d="M421.733 193.889C421.733 193.889 420.711 196.028 418.66 195.681C416.609 195.335 416.613 203.38 416.613 203.38C416.613 203.38 415.25 204.664 414.31 203.551C413.369 202.439 410.891 206.199 410.891 206.199L395.361 206.884C395.361 206.884 402.271 210.045 400.917 219.609C400.917 219.609 424.378 218.154 425.147 215.934C425.916 213.714 421.733 193.889 421.733 193.889Z" fill="black"/>
<path d="M376.602 211.908L380.696 215.407L414.396 222.495L410.217 218.226L376.602 211.908Z" fill="white"/>
<path d="M434.616 172.882C434.056 173.737 432.454 178.117 431.116 181.941C430.001 185.128 429.069 187.93 429.069 187.93C429.069 187.93 426.894 202.105 425.783 204.667C424.672 207.229 425.274 217.221 425.274 217.221L421.133 241.897C421.133 241.897 419.257 254.622 416.36 262.223C413.501 269.704 410.317 273.212 410.219 273.323C411.501 271.586 418.488 237.393 418.488 237.393L420.796 194.269C420.796 194.269 421.133 190.171 421.475 186.668C421.817 183.165 428.74 178.383 428.74 178.383L435.415 168.883C436.086 169.781 435.637 171.346 434.616 172.882Z" fill="white"/>
<path d="M417.211 228.303C417.211 228.303 407.382 227.875 402.622 222.152C397.861 216.429 413.626 219.868 413.626 219.868L417.724 220.809L417.211 228.303Z" fill="#FFB0B1"/>
<path opacity="0.1" d="M463.112 293.803C462.586 295.667 462.501 297.628 462.865 299.53C452.142 300.291 440.673 297.391 440.673 297.391C438.536 299.359 432.908 302.259 432.908 302.259L429.839 264.191C427.878 259.058 427.109 232.166 427.109 232.166C427.109 232.166 427.284 230.759 427.536 228.65C427.536 228.599 427.536 228.543 427.557 228.492C428.322 222.602 429.839 211.545 430.583 210.052C431.609 207.999 427.429 202.537 427.429 202.537L429.331 186.304L429.562 184.345C433.57 182.553 436.643 176.83 436.643 176.83L439.002 172.694C441.566 171.047 441.698 187.185 441.698 187.185L439.134 225.292L447.63 222.944C447.63 222.944 464.561 288.935 463.112 293.803Z" fill="black"/>
<path d="M474.116 296.433C462.429 302.242 441.185 296.861 441.185 296.861C439.049 298.829 433.42 301.729 433.42 301.729L430.348 263.66C428.391 258.527 427.621 231.636 427.621 231.636C427.621 231.636 430.091 211.571 431.117 209.522C431.416 208.923 431.271 208.033 430.916 207.075C429.172 202.515 428.531 197.606 429.044 192.75L429.865 185.774L430.091 183.819C434.104 182.023 437.177 176.299 437.177 176.299L439.314 172.552L443.245 165.649L445.108 162.381L445.425 162.667L447.839 164.858C447.839 164.858 448.865 165.713 450.403 166.996C453.749 169.819 459.531 174.79 462.514 177.831C465.138 180.508 465.967 190.924 466.206 198.764C466.364 203.927 466.27 207.973 466.27 207.973C463.625 212.332 470.544 247.325 470.544 247.325C472.155 254.087 474.116 296.433 474.116 296.433Z" fill="white"/>
<path opacity="0.03" d="M451.681 176.215C451.681 176.215 443.66 191.498 444.591 197.307C445.523 203.115 448.172 209.689 446.895 211.225C446.456 211.807 445.888 212.279 445.237 212.605C444.585 212.931 443.867 213.101 443.138 213.103C441.856 213.188 438.438 215.579 438.438 215.836C438.438 216.093 435.279 216.093 432.455 217.29C429.63 218.488 425.459 219.168 425.459 219.168C425.459 219.168 417.34 218.911 416.583 219.681C415.827 220.451 415.049 225.058 416.669 228.732C418.288 232.407 420.087 235.148 421.446 235.649C422.805 236.149 431.429 233.258 438.425 232.573C445.42 231.889 453.014 226.341 453.014 226.341C453.014 226.341 461.377 223.347 462.843 218.313C464.309 213.278 461.053 185.608 461.053 185.608C461.053 185.608 458.591 172.712 451.681 176.215Z" fill="black"/>
<path opacity="0.03" d="M450.655 174.93C450.655 174.93 442.634 190.217 443.574 196.021C444.514 201.826 447.155 208.404 445.873 209.944C445.436 210.527 444.869 210.999 444.218 211.325C443.567 211.651 442.849 211.821 442.121 211.822C440.839 211.907 437.421 214.298 437.421 214.555C437.421 214.812 434.262 214.812 431.438 216.005C428.613 217.199 424.442 217.883 424.442 217.883C424.442 217.883 416.323 217.626 415.57 218.396C414.818 219.166 414.032 223.777 415.656 227.447C417.28 231.117 419.075 233.863 420.434 234.364C421.793 234.864 430.416 231.973 437.412 231.292C444.408 230.612 452.002 225.056 452.002 225.056C452.002 225.056 460.36 222.062 461.809 217.032C463.258 212.002 460.019 184.323 460.019 184.323C460.019 184.323 457.566 171.431 450.655 174.93Z" fill="black"/>
<path d="M451.429 175.443C451.429 175.443 443.407 190.73 444.348 196.535C445.288 202.339 447.929 208.918 446.651 210.453C446.214 211.037 445.647 211.511 444.995 211.837C444.343 212.164 443.624 212.335 442.895 212.335C441.613 212.421 438.194 214.812 438.194 215.064C438.194 215.316 435.04 215.321 432.211 216.518C429.382 217.716 425.215 218.396 425.215 218.396C425.215 218.396 417.096 218.14 416.339 218.909C415.583 219.679 414.805 224.29 416.425 227.96C418.045 231.63 419.844 234.376 421.203 234.877C422.562 235.377 431.185 232.486 438.181 231.801C445.177 231.117 452.771 225.569 452.771 225.569C452.771 225.569 461.134 222.575 462.6 217.541C464.065 212.506 460.83 184.836 460.83 184.836C460.83 184.836 458.335 171.961 451.429 175.443Z" fill="white"/>
<path opacity="0.1" d="M451.253 216.446C451.253 216.446 444.842 215.163 447.073 217.301C449.304 219.44 449.291 221.313 452.022 221.228C454.753 221.142 451.253 216.446 451.253 216.446Z" fill="black"/>
<path opacity="0.1" d="M462.087 262.463C462.087 262.463 459.189 264.426 464.732 268.951C470.275 273.477 462.087 262.463 462.087 262.463Z" fill="black"/>
<path opacity="0.1" d="M456.556 278.602C456.556 278.859 455.53 288.012 459.368 290.301C463.206 292.589 456.556 278.602 456.556 278.602Z" fill="black"/>
<path d="M395.626 206.861C392.532 206.968 385.848 207.913 389.314 214.385C392.378 220.112 397.528 216.284 400.425 213.38C399.718 210.672 398.001 208.339 395.626 206.861Z" fill="#FFB0B1"/>
<path opacity="0.1" d="M450.403 167.257C447.121 169.503 444.369 171.398 443.831 171.791C442.361 172.882 439.557 179.285 437.75 182.553C436.309 185.184 431.63 185.859 429.865 186.026L430.091 184.071C434.104 182.275 437.177 176.552 437.177 176.552L445.108 162.633L447.839 165.118C447.839 165.118 448.865 165.974 450.403 167.257Z" fill="black"/>
<path d="M450.403 167C447.121 169.246 444.369 171.141 443.831 171.539C442.361 172.625 439.557 179.028 437.75 182.296C436.309 184.927 431.63 185.603 429.865 185.77L430.091 183.815C434.104 182.018 437.177 176.295 437.177 176.295L445.108 162.377L447.839 164.853C447.839 164.853 448.865 165.7 450.403 167Z" fill="#DCE7FF"/>
<path d="M444.087 156.102C444.089 158.669 443.311 161.177 441.856 163.292C440.138 165.793 437.582 167.594 434.65 168.37C431.719 169.145 428.607 168.843 425.879 167.518C423.151 166.193 420.988 163.934 419.782 161.149C418.576 158.365 418.408 155.24 419.307 152.342C420.206 149.443 422.114 146.964 424.683 145.353C427.253 143.742 430.314 143.106 433.312 143.561C436.309 144.016 439.045 145.531 441.022 147.832C442.999 150.133 444.086 153.067 444.087 156.102Z" fill="#FFB0B1"/>
<path opacity="0.1" d="M466.206 198.767C464.471 197.699 463.058 196.179 462.117 194.37C461.403 192.959 460.929 191.329 459.711 190.328C458.612 189.43 457.147 189.212 455.779 188.81C451.284 187.479 447.514 183.373 447.373 178.685C447.305 176.478 447.993 174.275 447.681 172.09C447.504 170.852 447.012 169.682 446.254 168.689C445.877 168.214 445.464 167.77 445.019 167.359C444.42 166.794 443.792 166.247 443.245 165.648C442.901 165.277 442.599 164.868 442.348 164.429C442.145 164.069 441.98 163.689 441.856 163.295C441.002 160.678 441.779 157.572 440.839 154.925L440.788 154.779C440.433 153.838 439.711 152.897 438.707 152.824C437.703 152.752 436.844 153.586 435.886 153.958C433.882 154.736 431.72 153.41 430.049 152.059C428.378 150.707 426.493 149.163 424.369 149.462C422.963 149.663 421.852 150.621 420.557 151.118C420.265 151.231 419.963 151.318 419.656 151.379C420.752 148.643 422.765 146.375 425.35 144.964C427.935 143.553 430.93 143.087 433.821 143.647C436.712 144.206 439.318 145.755 441.191 148.029C443.065 150.302 444.089 153.158 444.087 156.105C444.088 156.995 443.995 157.883 443.809 158.753C443.831 158.813 443.852 158.868 443.878 158.928C444.373 160.211 444.933 161.529 445.425 162.667L447.839 164.857C447.839 164.857 448.865 165.712 450.403 166.995C453.749 169.818 459.531 174.789 462.514 177.83C465.138 180.516 465.959 190.927 466.206 198.767Z" fill="black"/>
<path d="M420.408 143.305C421.019 142.06 421.322 140.666 422.053 139.485C423.126 137.774 424.998 136.679 426.921 136.016C431.942 134.284 442.553 131.769 445.724 136.016C446.348 136.872 446.865 137.821 447.728 138.412C448.386 138.861 449.181 139.053 449.903 139.391C451.925 140.341 453.215 142.411 453.903 144.524C454.591 146.637 454.796 148.904 455.301 151.081C455.946 153.874 457.078 156.522 458.207 159.153C459.536 162.258 460.946 165.479 463.51 167.673C467.01 170.667 467.783 174.906 471.031 178.191C474.877 182.092 474.753 188.529 472.77 193.641C472.51 194.312 472.215 195.014 472.318 195.728C472.42 196.443 472.95 197.093 473.45 197.662L475.552 200.035C470.578 201.237 464.95 198.637 462.634 194.073C461.92 192.661 461.446 191.036 460.224 190.031C459.13 189.133 457.66 188.919 456.296 188.517C451.801 187.182 448.031 183.071 447.89 178.384C447.822 176.181 448.51 173.978 448.198 171.796C448.025 170.551 447.531 169.372 446.767 168.374C445.591 166.839 443.818 165.808 442.861 164.097C441.241 161.236 442.472 157.519 441.305 154.447C440.946 153.506 440.228 152.565 439.224 152.493C438.22 152.42 437.361 153.254 436.399 153.626C434.399 154.405 432.237 153.083 430.566 151.727C428.895 150.371 427.01 148.831 424.882 149.135C423.476 149.332 422.369 150.29 421.075 150.79C420.117 151.158 418.177 151.487 417.34 150.679C415.57 149.049 419.669 144.828 420.408 143.305Z" fill="#591D4B"/>
<path opacity="0.1" d="M463.823 192.66C463.105 191.249 462.635 189.623 461.413 188.623C460.319 187.724 458.848 187.506 457.481 187.104C452.99 185.774 449.22 181.663 449.075 176.975C449.007 174.772 449.695 172.565 449.387 170.384C449.208 169.147 448.715 167.976 447.955 166.983C446.776 165.448 445.002 164.417 444.049 162.706C442.43 159.849 443.661 156.132 442.49 153.056C442.135 152.12 441.413 151.179 440.413 151.102C439.413 151.025 438.545 151.867 437.588 152.239C435.588 153.018 433.421 151.692 431.755 150.34C430.088 148.989 428.195 147.444 426.071 147.744C424.665 147.945 423.554 148.903 422.263 149.399C421.306 149.767 419.362 150.101 418.524 149.292C416.764 147.581 420.862 143.368 421.597 141.854C422.208 140.605 422.511 139.215 423.246 138.034C423.285 137.97 423.328 137.906 423.37 137.842C422.82 138.298 422.346 138.838 421.964 139.441C421.234 140.622 420.93 142.008 420.319 143.261C419.58 144.775 415.482 149.001 417.246 150.699C418.101 151.512 420.024 151.179 420.981 150.811C422.263 150.31 423.383 149.352 424.789 149.155C426.926 148.852 428.806 150.396 430.473 151.747C432.139 153.099 434.319 154.425 436.31 153.647C437.268 153.274 438.105 152.436 439.131 152.513C440.156 152.59 440.84 153.527 441.212 154.468C442.379 157.539 441.148 161.256 442.767 164.118C443.725 165.799 445.498 166.851 446.673 168.395C447.438 169.392 447.931 170.571 448.105 171.817C448.417 173.998 447.729 176.201 447.797 178.404C447.938 183.109 451.708 187.202 456.203 188.537C457.558 188.939 459.036 189.153 460.13 190.051C461.357 191.056 461.84 192.682 462.541 194.093C464.857 198.657 470.485 201.258 475.459 200.056L474.468 198.935C470.156 198.999 465.793 196.544 463.823 192.66Z" fill="black"/>
<path opacity="0.1" d="M434.36 173.138C433.8 173.994 432.197 178.374 430.86 182.198C429.608 181.71 428.471 178.601 428.471 178.601L435.146 169.096C435.83 170.037 435.381 171.599 434.36 173.138Z" fill="black"/>
<path d="M434.618 172.882C434.058 173.737 432.456 178.117 431.118 181.941C429.866 181.458 428.729 178.344 428.729 178.344L435.404 168.844C436.088 169.781 435.639 171.346 434.618 172.882Z" fill="#DCE7FF"/>
<path d="M395.806 216.578L392.105 204.897C392.061 204.76 392.045 204.616 392.057 204.473C392.069 204.33 392.109 204.19 392.175 204.063C392.24 203.935 392.331 203.822 392.441 203.729C392.55 203.637 392.677 203.567 392.814 203.524C393.09 203.438 393.388 203.464 393.644 203.597C393.9 203.73 394.093 203.959 394.182 204.234L397.882 215.902L397.515 218.345L395.806 216.578Z" fill="#BE8B87"/>
<path opacity="0.1" d="M392.455 203.871C392.731 203.784 393.031 203.81 393.288 203.943C393.545 204.076 393.739 204.305 393.827 204.581L397.528 216.25L397.25 218.081L397.519 218.363L397.887 215.921L394.165 204.252C394.076 203.977 393.883 203.748 393.627 203.615C393.371 203.482 393.073 203.456 392.797 203.542C392.565 203.617 392.365 203.768 392.229 203.97C392.301 203.931 392.377 203.898 392.455 203.871Z" fill="white"/>
<path d="M395.805 216.58L397.882 215.922L397.578 217.923L397.514 218.364L396.907 217.731L395.805 216.58Z" fill="#EFC8C4"/>
<path d="M396.908 217.73C396.944 217.684 396.989 217.646 397.041 217.619C397.071 217.6 397.106 217.59 397.141 217.59C397.177 217.59 397.211 217.6 397.242 217.619C397.271 217.654 397.295 217.693 397.314 217.734C397.342 217.781 397.381 217.822 397.427 217.852C397.473 217.882 397.525 217.902 397.579 217.91L397.515 218.337L396.908 217.73Z" fill="#727A9C"/>
<path d="M392.082 209.047C392.082 209.047 399.505 209.004 397.758 212.165C396.01 215.326 393.279 215.707 393.279 215.707L392.082 209.047Z" fill="#FFB0B1"/>
<path d="M334.63 184.467H334.407C325.517 184.467 317.655 189.165 313.133 196.098C308.61 189.165 300.748 184.467 291.858 184.467H291.635C284.963 184.531 278.587 187.221 273.89 191.954C269.194 196.687 266.557 203.079 266.553 209.743C266.553 218.017 270.182 229.758 277.258 239.419C290.738 257.827 313.133 273.933 313.133 273.933C313.133 273.933 335.527 257.83 349.005 239.419C356.083 229.758 359.709 218.017 359.709 209.743C359.705 203.08 357.069 196.688 352.373 191.955C347.677 187.222 341.301 184.531 334.63 184.467ZM331.434 240.835C330.421 240.831 329.434 240.522 328.6 239.947C327.767 239.373 327.128 238.56 326.765 237.616H321.45C321.1 237.614 320.76 237.502 320.476 237.298C320.193 237.093 319.98 236.805 319.868 236.473L318.236 231.561L313.07 249.589C312.969 249.936 312.759 250.241 312.47 250.458C312.181 250.675 311.829 250.793 311.467 250.794H311.363C310.986 250.775 310.626 250.628 310.344 250.377C310.062 250.126 309.875 249.786 309.814 249.413L304.49 217.434L300.599 236.357C300.51 236.717 300.303 237.036 300.011 237.264C299.719 237.492 299.358 237.616 298.988 237.616H291.501C291.277 237.625 291.052 237.589 290.842 237.51C290.632 237.431 290.44 237.31 290.278 237.155C290.116 237 289.987 236.813 289.899 236.607C289.811 236.4 289.765 236.178 289.765 235.954C289.765 235.73 289.811 235.508 289.899 235.301C289.987 235.095 290.116 234.909 290.278 234.753C290.44 234.598 290.632 234.477 290.842 234.398C291.052 234.319 291.277 234.283 291.501 234.292H297.677L303.188 208.85C303.279 208.474 303.497 208.141 303.806 207.908C304.115 207.675 304.496 207.556 304.883 207.572C305.27 207.588 305.639 207.738 305.928 207.996C306.217 208.254 306.407 208.605 306.465 208.987L311.902 241.609L316.532 225.479C316.628 225.14 316.832 224.84 317.113 224.626C317.394 224.411 317.736 224.293 318.09 224.289H318.123C318.473 224.289 318.814 224.4 319.098 224.605C319.381 224.81 319.592 225.099 319.702 225.432L322.654 234.301H326.7C326.987 233.428 327.511 232.652 328.212 232.058C328.914 231.463 329.766 231.074 330.676 230.933C331.585 230.792 332.515 230.904 333.364 231.258C334.213 231.611 334.948 232.193 335.488 232.937C336.027 233.681 336.35 234.56 336.421 235.476C336.492 236.392 336.308 237.31 335.889 238.128C335.471 238.947 334.834 239.634 334.049 240.113C333.265 240.593 332.363 240.847 331.443 240.847L331.434 240.835Z" fill="#0046EA"/>
</g>
<path d="M451.018 124.514H337.572V53.4941H451.018V124.514Z" fill="white"/>
<path d="M451.018 124.514H337.572V53.4941H451.018V124.514ZM338.09 123.995H450.5V54.0125H338.09V123.995Z" fill="#3F3D56"/>
<path d="M497.135 82.0878H432.572V11.0684H497.135V82.0878Z" fill="white"/>
<path d="M487.913 74.709H475V75.6314H487.913V74.709Z" fill="#3F3D56"/>
<path d="M487.913 76.5527H475V77.475H487.913V76.5527Z" fill="#3F3D56"/>
<path d="M464.854 23.0586V28.8667C468.275 28.8667 471.618 29.8886 474.462 31.8032C477.306 33.7178 479.523 36.4391 480.832 39.623C482.141 42.8068 482.483 46.3103 481.816 49.6903C481.149 53.0703 479.502 56.175 477.083 58.6118L481.159 62.7188C484.384 59.4696 486.58 55.33 487.47 50.8234C488.359 46.3167 487.903 41.6455 486.158 37.4003C484.412 33.1551 481.457 29.5267 477.665 26.9739C473.873 24.4211 469.415 23.0586 464.854 23.0586Z" fill="#E6E6E6"/>
<path d="M480.534 62.2732L476.558 58.1074C473.674 61.1297 469.842 62.9544 465.772 63.2435C461.702 63.5326 457.67 62.2665 454.423 59.6798L451.02 64.3716C455.35 67.8197 460.726 69.5071 466.152 69.1213C471.579 68.7355 476.688 66.3026 480.534 62.2732Z" fill="#575A89"/>
<path d="M447.562 46.1662C447.562 43.8903 448.009 41.6367 448.878 39.534C449.747 37.4313 451.021 35.5208 452.627 33.9115C454.233 32.3022 456.139 31.0256 458.237 30.1547C460.336 29.2837 462.584 28.8355 464.855 28.8355V23.0586C460.028 23.0585 455.323 24.5765 451.403 27.3987C447.482 30.2209 444.545 34.2048 443.004 38.789C441.463 43.3732 441.396 48.3265 442.813 52.9506C444.231 57.5747 447.06 61.6365 450.903 64.5634L454.392 59.9627C452.268 58.3479 450.546 56.2618 449.361 53.8682C448.176 51.4745 447.56 48.8383 447.562 46.1662Z" fill="#0046EA"/>
<path d="M497.135 82.0878H432.572V11.0684H497.135V82.0878ZM433.088 81.5694H496.618V11.5867H433.088V81.5694Z" fill="#3F3D56"/>
<path d="M435.084 109.758H353.508C353.44 109.758 353.375 109.731 353.327 109.683C353.279 109.635 353.252 109.57 353.252 109.503V70.3533C353.252 70.2855 353.279 70.2205 353.327 70.1725C353.375 70.1246 353.44 70.0977 353.508 70.0977C353.575 70.0977 353.64 70.1246 353.688 70.1725C353.736 70.2205 353.763 70.2855 353.763 70.3533V109.247H435.084C435.117 109.247 435.151 109.253 435.182 109.266C435.213 109.279 435.241 109.298 435.265 109.322C435.289 109.345 435.307 109.374 435.32 109.405C435.333 109.436 435.34 109.469 435.34 109.503C435.34 109.536 435.333 109.57 435.32 109.601C435.307 109.632 435.289 109.66 435.265 109.684C435.241 109.707 435.213 109.726 435.182 109.739C435.151 109.752 435.117 109.758 435.084 109.758Z" fill="#3F3D56"/>
<path d="M370.918 106.99H363.259C363.052 106.99 362.853 106.908 362.706 106.763C362.56 106.618 362.477 106.422 362.477 106.217V95.7737C362.477 95.5686 362.56 95.3719 362.706 95.2269C362.853 95.0818 363.052 95.0002 363.259 95H370.918C371.125 95.0002 371.324 95.0818 371.471 95.2269C371.617 95.3719 371.7 95.5686 371.7 95.7737V106.217C371.7 106.422 371.617 106.618 371.471 106.763C371.324 106.908 371.125 106.99 370.918 106.99Z" fill="#0046EA"/>
<path d="M384.752 106.989H377.093C376.886 106.989 376.687 106.907 376.54 106.76C376.394 106.613 376.311 106.414 376.311 106.207V85.6357C376.311 85.4283 376.394 85.2295 376.54 85.0828C376.687 84.9362 376.886 84.8537 377.093 84.8535H384.752C384.959 84.8537 385.158 84.9362 385.305 85.0828C385.451 85.2295 385.534 85.4283 385.534 85.6357V106.207C385.534 106.414 385.451 106.613 385.305 106.76C385.158 106.907 384.959 106.989 384.752 106.989Z" fill="#0046EA"/>
<path d="M397.742 106.99H390.85C390.663 106.99 390.484 106.908 390.352 106.763C390.22 106.618 390.146 106.422 390.146 106.217V95.7737C390.146 95.5686 390.22 95.3719 390.352 95.2269C390.484 95.0818 390.663 95.0002 390.85 95H397.742C397.929 95.0002 398.108 95.0818 398.24 95.2269C398.372 95.3719 398.447 95.5686 398.447 95.7737V106.217C398.447 106.422 398.372 106.618 398.24 106.763C398.108 106.908 397.929 106.99 397.742 106.99Z" fill="#0046EA"/>
<path d="M411.5 106.989H403.842C403.639 106.993 403.443 106.918 403.296 106.779C403.15 106.641 403.064 106.45 403.059 106.25V81.9034C403.064 81.7028 403.15 81.5124 403.296 81.3738C403.443 81.2353 403.639 81.1599 403.842 81.1642H411.5C411.703 81.1599 411.899 81.2353 412.046 81.3738C412.192 81.5124 412.278 81.7028 412.283 81.9034V106.25C412.278 106.45 412.192 106.641 412.046 106.779C411.899 106.918 411.703 106.993 411.5 106.989Z" fill="#0046EA"/>
<path d="M425.334 106.99H417.676C417.468 106.99 417.269 106.91 417.123 106.767C416.976 106.625 416.894 106.431 416.893 106.23V75.4695C416.894 75.2679 416.976 75.0746 417.123 74.932C417.269 74.7895 417.468 74.7093 417.676 74.709H425.334C425.542 74.7093 425.741 74.7895 425.887 74.932C426.034 75.0746 426.116 75.2679 426.117 75.4695V106.23C426.116 106.431 426.034 106.625 425.887 106.767C425.741 106.91 425.542 106.99 425.334 106.99Z" fill="#0046EA"/>
<path d="M367.086 92.2323C368.105 92.2323 368.931 91.4064 368.931 90.3877C368.931 89.3689 368.105 88.543 367.086 88.543C366.068 88.543 365.242 89.3689 365.242 90.3877C365.242 91.4064 366.068 92.2323 367.086 92.2323Z" fill="#3F3D56"/>
<path d="M380.461 82.0873C381.225 82.0873 381.845 81.4679 381.845 80.7038C381.845 79.9397 381.225 79.3203 380.461 79.3203C379.697 79.3203 379.078 79.9397 379.078 80.7038C379.078 81.4679 379.697 82.0873 380.461 82.0873Z" fill="#3F3D56"/>
<path d="M394.295 92.2323C395.059 92.2323 395.679 91.4064 395.679 90.3877C395.679 89.3689 395.059 88.543 394.295 88.543C393.531 88.543 392.912 89.3689 392.912 90.3877C392.912 91.4064 393.531 92.2323 394.295 92.2323Z" fill="#3F3D56"/>
<path d="M408.131 77.4764C408.895 77.4764 409.515 76.6505 409.515 75.6318C409.515 74.613 408.895 73.7871 408.131 73.7871C407.367 73.7871 406.748 74.613 406.748 75.6318C406.748 76.6505 407.367 77.4764 408.131 77.4764Z" fill="#3F3D56"/>
<path d="M421.505 71.019C422.524 71.019 423.349 70.3996 423.349 69.6355C423.349 68.8715 422.524 68.252 421.505 68.252C420.486 68.252 419.66 68.8715 419.66 69.6355C419.66 70.3996 420.486 71.019 421.505 71.019Z" fill="#3F3D56"/>
<path d="M394.358 90.3889L380.784 80.4972L367.395 90.2538L367.088 89.8558L380.784 79.8759L394.294 89.7206L407.719 75.4276L407.773 75.4062L421.315 70.0977L421.506 70.5591L408.017 75.8463L394.358 90.3889Z" fill="#3F3D56"/>
<path d="M254.443 87.2738H20.5388C19.091 87.2722 17.703 86.6963 16.6793 85.6726C15.6556 84.6489 15.0798 83.2609 15.0781 81.8132V33.3728C15.0798 31.925 15.6556 30.5371 16.6793 29.5134C17.703 28.4897 19.091 27.9138 20.5388 27.9121H254.443C255.891 27.9138 257.279 28.4897 258.303 29.5134C259.326 30.5371 259.902 31.925 259.904 33.3728V81.8132C259.902 83.2609 259.326 84.6489 258.303 85.6726C257.279 86.6963 255.891 87.2722 254.443 87.2738Z" fill="#E6E6E6"/>
<path d="M238.656 83.5899H24.2224C22.7746 83.5883 21.3867 83.0124 20.3629 81.9887C19.3392 80.965 18.7634 79.577 18.7617 78.1293V37.0584C18.7634 35.6107 19.3392 34.2227 20.3629 33.199C21.3867 32.1753 22.7746 31.5994 24.2224 31.5977H250.76C252.208 31.5994 253.596 32.1753 254.619 33.199C255.643 34.2227 256.219 35.6107 256.221 37.0584V66.0255C256.215 70.6823 254.363 75.1468 251.07 78.4396C247.777 81.7325 243.313 83.5847 238.656 83.5899Z" fill="white"/>
<path d="M210.376 50.217H145.071C144.697 50.217 144.339 50.0686 144.075 49.8045C143.811 49.5404 143.662 49.1822 143.662 48.8087C143.662 48.4352 143.811 48.077 144.075 47.8129C144.339 47.5488 144.697 47.4004 145.071 47.4004H210.376C210.749 47.4004 211.108 47.5488 211.372 47.8129C211.636 48.077 211.784 48.4352 211.784 48.8087C211.784 49.1822 211.636 49.5404 211.372 49.8045C211.108 50.0686 210.749 50.217 210.376 50.217Z" fill="#0046EA"/>
<path d="M226.906 58.5764H128.542C128.169 58.5764 127.811 58.428 127.546 58.1639C127.282 57.8998 127.134 57.5416 127.134 57.1681C127.134 56.7946 127.282 56.4364 127.546 56.1723C127.811 55.9081 128.169 55.7598 128.542 55.7598H226.906C227.28 55.7598 227.638 55.9081 227.902 56.1723C228.166 56.4364 228.314 56.7946 228.314 57.1681C228.314 57.5416 228.166 57.8998 227.902 58.1639C227.638 58.428 227.28 58.5764 226.906 58.5764Z" fill="#E6E6E6"/>
<path d="M226.906 67.7874H128.542C128.169 67.7874 127.811 67.639 127.546 67.3749C127.282 67.1108 127.134 66.7526 127.134 66.3791C127.134 66.0056 127.282 65.6473 127.546 65.3832C127.811 65.1191 128.169 64.9707 128.542 64.9707H226.906C227.28 64.9707 227.638 65.1191 227.902 65.3832C228.166 65.6473 228.314 66.0056 228.314 66.3791C228.314 66.7526 228.166 67.1108 227.902 67.3749C227.638 67.639 227.28 67.7874 226.906 67.7874Z" fill="#E6E6E6"/>
<path d="M144.202 35.9899H143.4V5.07617H201.444V5.87868H144.202V35.9899Z" fill="#CDCDD1"/>
<path d="M225.991 0H204.724C203.341 0 202.014 0.549573 201.036 1.52782C200.058 2.50606 199.508 3.83284 199.508 5.21629C199.508 6.59973 200.058 7.92651 201.036 8.90475C202.014 9.883 203.341 10.4326 204.724 10.4326H225.991C227.374 10.4326 228.701 9.883 229.679 8.90475C230.657 7.92651 231.207 6.59973 231.207 5.21629C231.207 3.83284 230.657 2.50606 229.679 1.52782C228.701 0.549573 227.374 0 225.991 0Z" fill="#0046EA"/>
<path d="M143.337 41.241C145.984 41.241 148.13 39.0949 148.13 36.4477C148.13 33.8004 145.984 31.6543 143.337 31.6543C140.689 31.6543 138.543 33.8004 138.543 36.4477C138.543 39.0949 140.689 41.241 143.337 41.241Z" fill="#E6E6E6"/>
<path d="M173.094 79.5703H172.291V110.484H230.335V109.681H173.094V79.5703Z" fill="#CDCDD1"/>
<path d="M260.097 110.345C260.096 108.962 259.546 107.636 258.568 106.658C257.59 105.681 256.264 105.131 254.881 105.129H233.614C232.231 105.129 230.904 105.679 229.926 106.657C228.948 107.635 228.398 108.962 228.398 110.345C228.398 111.729 228.948 113.056 229.926 114.034C230.904 115.012 232.231 115.562 233.614 115.562H254.881C256.264 115.56 257.59 115.01 258.568 114.033C259.546 113.055 260.096 111.729 260.097 110.345Z" fill="#0046EA"/>
<path d="M173.029 82.569C175.677 82.569 177.823 80.423 177.823 77.7757C177.823 75.1284 175.677 72.9824 173.029 72.9824C170.382 72.9824 168.236 75.1284 168.236 77.7757C168.236 80.423 170.382 82.569 173.029 82.569Z" fill="#E6E6E6"/>
<path d="M87.0032 79.9727H87.8057V110.887H29.7617V110.084H87.0032V79.9727Z" fill="#CDCDD1"/>
<path d="M5.21629 115.962H26.4827C27.8661 115.962 29.1929 115.412 30.1711 114.434C31.1494 113.456 31.699 112.129 31.699 110.746C31.699 109.362 31.1494 108.036 30.1711 107.057C29.1929 106.079 27.8661 105.529 26.4827 105.529H5.21629C3.83284 105.529 2.50606 106.079 1.52782 107.057C0.549573 108.036 0 109.362 0 110.746C0 112.129 0.549573 113.456 1.52782 114.434C2.50606 115.412 3.83284 115.962 5.21629 115.962Z" fill="#0046EA"/>
<path d="M87.9632 82.3015C90.6105 82.3015 92.7566 80.1554 92.7566 77.5081C92.7566 74.8608 90.6105 72.7148 87.9632 72.7148C85.316 72.7148 83.1699 74.8608 83.1699 77.5081C83.1699 80.1554 85.316 82.3015 87.9632 82.3015Z" fill="#E6E6E6"/>
<path d="M41.7732 71.9625C49.751 71.9625 56.2183 65.4952 56.2183 57.5174C56.2183 49.5396 49.751 43.0723 41.7732 43.0723C33.7953 43.0723 27.3281 49.5396 27.3281 57.5174C27.3281 65.4952 33.7953 71.9625 41.7732 71.9625Z" fill="#F2F2F2"/>
<path d="M96.5039 50.1408H86.9728C86.5993 50.1408 86.2411 49.9924 85.977 49.7283C85.7129 49.4642 85.5645 49.106 85.5645 48.7325C85.5645 48.359 85.7129 48.0008 85.977 47.7366C86.2411 47.4725 86.5993 47.3242 86.9728 47.3242H96.5039C96.8774 47.3242 97.2356 47.4725 97.4997 47.7366C97.7638 48.0008 97.9122 48.359 97.9122 48.7325C97.9122 49.106 97.7638 49.4642 97.4997 49.7283C97.2356 49.9924 96.8774 50.1408 96.5039 50.1408Z" fill="#0046EA"/>
<path d="M113.033 58.5002H70.4435C70.07 58.5002 69.7118 58.3518 69.4477 58.0877C69.1836 57.8236 69.0352 57.4654 69.0352 57.0919C69.0352 56.7184 69.1836 56.3602 69.4477 56.0961C69.7118 55.832 70.07 55.6836 70.4435 55.6836H113.033C113.407 55.6836 113.765 55.832 114.029 56.0961C114.293 56.3602 114.442 56.7184 114.442 57.0919C114.442 57.4654 114.293 57.8236 114.029 58.0877C113.765 58.3518 113.407 58.5002 113.033 58.5002Z" fill="#E6E6E6"/>
<path d="M113.033 67.7111H70.4435C70.07 67.7111 69.7118 67.5628 69.4477 67.2987C69.1836 67.0345 69.0352 66.6763 69.0352 66.3028C69.0352 65.9293 69.1836 65.5711 69.4477 65.307C69.7118 65.0429 70.07 64.8945 70.4435 64.8945H113.033C113.407 64.8945 113.765 65.0429 114.029 65.307C114.293 65.5711 114.442 65.9293 114.442 66.3028C114.442 66.6763 114.293 67.0345 114.029 67.2987C113.765 67.5628 113.407 67.7111 113.033 67.7111Z" fill="#E6E6E6"/>
</g>
<defs>
<linearGradient id="paint0_linear_41_821" x1="196.548" y1="376.633" x2="196.548" y2="113.43" gradientUnits="userSpaceOnUse">
<stop stop-color="#808080" stop-opacity="0.25"/>
<stop offset="0.54" stop-color="#808080" stop-opacity="0.12"/>
<stop offset="1" stop-color="#808080" stop-opacity="0.1"/>
</linearGradient>
<linearGradient id="paint1_linear_41_821" x1="426.074" y1="373.306" x2="426.074" y2="132.918" gradientUnits="userSpaceOnUse">
<stop stop-color="#808080" stop-opacity="0.25"/>
<stop offset="0.54" stop-color="#808080" stop-opacity="0.12"/>
<stop offset="1" stop-color="#808080" stop-opacity="0.1"/>
</linearGradient>
<clipPath id="clip0_41_821">
<rect width="517" height="380" fill="white"/>
</clipPath>
</defs>
</svg>
